<svg width="334" height="92" viewBox="0 0 334 92" fill="none" xmlns="http://www.w3.org/2000/svg">
<path d="M108.224 83C108.117 83 108.027 82.968 107.952 82.904C107.888 82.8293 107.856 82.7387 107.856 82.632V73.176H104.768C104.661 73.176 104.571 73.144 104.496 73.08C104.432 73.0053 104.4 72.9147 104.4 72.808V72.184C104.4 72.0667 104.432 71.976 104.496 71.912C104.571 71.8373 104.661 71.8 104.768 71.8H112.448C112.565 71.8 112.656 71.8373 112.72 71.912C112.784 71.976 112.816 72.0667 112.816 72.184V72.808C112.816 72.9147 112.779 73.0053 112.704 73.08C112.64 73.144 112.555 73.176 112.448 73.176H109.376V82.632C109.376 82.7387 109.339 82.8293 109.264 82.904C109.189 82.968 109.099 83 108.992 83H108.224ZM113.634 83C113.528 83 113.437 82.968 113.362 82.904C113.298 82.8293 113.266 82.7387 113.266 82.632V75.064C113.266 74.9573 113.298 74.8667 113.362 74.792C113.437 74.7173 113.528 74.68 113.634 74.68H114.306C114.424 74.68 114.514 74.7173 114.578 74.792C114.653 74.856 114.69 74.9467 114.69 75.064V75.768C115.128 75.0427 115.869 74.68 116.914 74.68H117.538C117.656 74.68 117.746 74.712 117.81 74.776C117.874 74.84 117.906 74.9307 117.906 75.048V75.64C117.906 75.7467 117.874 75.8373 117.81 75.912C117.746 75.976 117.656 76.008 117.538 76.008H116.626C116.04 76.008 115.576 76.1787 115.234 76.52C114.904 76.8613 114.738 77.3253 114.738 77.912V82.632C114.738 82.7387 114.701 82.8293 114.626 82.904C114.552 82.968 114.461 83 114.354 83H113.634ZM122.546 83.16C121.533 83.16 120.749 82.8347 120.194 82.184C119.639 81.5227 119.362 80.648 119.362 79.56V75.048C119.362 74.9413 119.394 74.856 119.458 74.792C119.533 74.7173 119.623 74.68 119.73 74.68H120.466C120.573 74.68 120.658 74.7173 120.722 74.792C120.797 74.856 120.834 74.9413 120.834 75.048V79.48C120.834 81.1013 121.538 81.912 122.946 81.912C123.629 81.912 124.167 81.6987 124.562 81.272C124.967 80.8347 125.17 80.2373 125.17 79.48V75.048C125.17 74.9413 125.202 74.856 125.266 74.792C125.341 74.7173 125.431 74.68 125.538 74.68H126.274C126.381 74.68 126.466 74.7173 126.53 74.792C126.605 74.856 126.642 74.9413 126.642 75.048V82.632C126.642 82.7387 126.605 82.8293 126.53 82.904C126.466 82.968 126.381 83 126.274 83H125.586C125.479 83 125.389 82.968 125.314 82.904C125.25 82.8293 125.218 82.7387 125.218 82.632V81.912C124.909 82.328 124.546 82.6427 124.13 82.856C123.714 83.0587 123.186 83.16 122.546 83.16ZM132.044 83.16C131.308 83.16 130.684 83.0427 130.172 82.808C129.67 82.5627 129.297 82.2853 129.052 81.976C128.806 81.6667 128.684 81.4107 128.684 81.208C128.684 81.1013 128.721 81.0213 128.796 80.968C128.87 80.904 128.95 80.872 129.036 80.872H129.708C129.772 80.872 129.82 80.8827 129.852 80.904C129.894 80.9253 129.948 80.9733 130.012 81.048C130.257 81.3467 130.529 81.5813 130.828 81.752C131.137 81.9227 131.548 82.008 132.06 82.008C132.636 82.008 133.094 81.9013 133.436 81.688C133.788 81.4747 133.964 81.1653 133.964 80.76C133.964 80.4933 133.889 80.28 133.74 80.12C133.59 79.96 133.34 79.816 132.988 79.688C132.646 79.56 132.134 79.4213 131.452 79.272C130.524 79.0693 129.868 78.776 129.484 78.392C129.1 78.008 128.908 77.512 128.908 76.904C128.908 76.5093 129.025 76.1307 129.26 75.768C129.494 75.3947 129.841 75.096 130.3 74.872C130.769 74.6373 131.324 74.52 131.964 74.52C132.636 74.52 133.206 74.632 133.676 74.856C134.156 75.08 134.513 75.3413 134.748 75.64C134.993 75.9387 135.116 76.1893 135.116 76.392C135.116 76.488 135.078 76.568 135.004 76.632C134.94 76.696 134.86 76.728 134.764 76.728H134.156C134.006 76.728 133.9 76.6693 133.836 76.552C133.654 76.3493 133.5 76.1947 133.372 76.088C133.254 75.9707 133.078 75.8747 132.844 75.8C132.609 75.7147 132.316 75.672 131.964 75.672C131.441 75.672 131.041 75.784 130.764 76.008C130.486 76.2213 130.348 76.5093 130.348 76.872C130.348 77.096 130.406 77.288 130.524 77.448C130.641 77.5973 130.865 77.7413 131.196 77.88C131.526 78.008 132.017 78.1413 132.668 78.28C133.681 78.4933 134.396 78.7973 134.812 79.192C135.238 79.5867 135.452 80.0933 135.452 80.712C135.452 81.1707 135.318 81.5867 135.052 81.96C134.796 82.3333 134.406 82.6267 133.884 82.84C133.372 83.0533 132.758 83.16 132.044 83.16ZM140.665 83C139.012 83 138.185 82.0667 138.185 80.2V75.912H136.921C136.814 75.912 136.729 75.88 136.665 75.816C136.601 75.752 136.569 75.6667 136.569 75.56V75.048C136.569 74.9413 136.601 74.856 136.665 74.792C136.729 74.7173 136.814 74.68 136.921 74.68H138.185V72.008C138.185 71.9013 138.217 71.816 138.281 71.752C138.345 71.6773 138.43 71.64 138.537 71.64H139.241C139.348 71.64 139.433 71.6773 139.497 71.752C139.572 71.816 139.609 71.9013 139.609 72.008V74.68H141.593C141.7 74.68 141.785 74.7173 141.849 74.792C141.924 74.856 141.961 74.9413 141.961 75.048V75.56C141.961 75.6667 141.924 75.752 141.849 75.816C141.785 75.88 141.7 75.912 141.593 75.912H139.609V80.088C139.609 80.632 139.694 81.0427 139.865 81.32C140.046 81.5973 140.35 81.736 140.777 81.736H141.753C141.86 81.736 141.945 81.7733 142.009 81.848C142.073 81.912 142.105 81.9973 142.105 82.104V82.632C142.105 82.7387 142.073 82.8293 142.009 82.904C141.945 82.968 141.86 83 141.753 83H140.665ZM147.124 83.16C146.036 83.16 145.167 82.824 144.516 82.152C143.865 81.4693 143.508 80.5413 143.444 79.368L143.428 78.824L143.444 78.296C143.508 77.144 143.865 76.2267 144.516 75.544C145.167 74.8613 146.036 74.52 147.124 74.52C148.297 74.52 149.204 74.8933 149.844 75.64C150.495 76.3867 150.82 77.4 150.82 78.68V78.968C150.82 79.0747 150.783 79.1653 150.708 79.24C150.644 79.304 150.559 79.336 150.452 79.336H144.9V79.48C144.932 80.1733 145.145 80.7653 145.54 81.256C145.935 81.7467 146.457 81.992 147.108 81.992C147.609 81.992 148.015 81.896 148.324 81.704C148.644 81.5013 148.884 81.2933 149.044 81.08C149.14 80.952 149.215 80.8773 149.268 80.856C149.321 80.824 149.412 80.808 149.54 80.808H150.244C150.34 80.808 150.42 80.8347 150.484 80.888C150.559 80.9413 150.596 81.0107 150.596 81.096C150.596 81.3307 150.452 81.6133 150.164 81.944C149.876 82.2747 149.465 82.5627 148.932 82.808C148.409 83.0427 147.807 83.16 147.124 83.16ZM149.364 78.248V78.2C149.364 77.4533 149.161 76.8453 148.756 76.376C148.351 75.9067 147.807 75.672 147.124 75.672C146.431 75.672 145.887 75.9067 145.492 76.376C145.097 76.8453 144.9 77.4533 144.9 78.2V78.248H149.364ZM155.966 83.16C154.846 83.16 154.003 82.7973 153.438 82.072C152.883 81.3467 152.584 80.4293 152.542 79.32L152.526 78.84L152.542 78.36C152.584 77.2613 152.888 76.3493 153.454 75.624C154.019 74.888 154.856 74.52 155.966 74.52C157.075 74.52 157.939 74.9147 158.558 75.704V72.008C158.558 71.9013 158.59 71.816 158.654 71.752C158.728 71.6773 158.819 71.64 158.926 71.64H159.646C159.752 71.64 159.838 71.6773 159.902 71.752C159.976 71.816 160.014 71.9013 160.014 72.008V82.632C160.014 82.7387 159.976 82.8293 159.902 82.904C159.838 82.968 159.752 83 159.646 83H158.958C158.851 83 158.766 82.968 158.702 82.904C158.638 82.8293 158.606 82.7387 158.606 82.632V81.944C157.998 82.7547 157.118 83.16 155.966 83.16ZM156.27 81.912C157.016 81.912 157.576 81.6667 157.95 81.176C158.323 80.6747 158.526 80.0827 158.558 79.4C158.568 79.2827 158.574 79.08 158.574 78.792C158.574 78.4933 158.568 78.2853 158.558 78.168C158.536 77.5173 158.328 76.9573 157.934 76.488C157.55 76.008 156.995 75.768 156.27 75.768C155.502 75.768 154.942 76.008 154.59 76.488C154.238 76.968 154.046 77.5973 154.014 78.376L153.998 78.84C153.998 80.888 154.755 81.912 156.27 81.912ZM168.513 83C168.247 83 168.081 82.8613 168.017 82.584L165.953 72.296L165.921 72.12C165.921 72.0347 165.953 71.96 166.017 71.896C166.081 71.832 166.156 71.8 166.241 71.8H167.025C167.249 71.8 167.377 71.8907 167.409 72.072L169.057 80.424L170.833 74.664C170.897 74.408 171.063 74.28 171.329 74.28H171.889C172.145 74.28 172.316 74.408 172.401 74.664L174.161 80.424L175.809 72.072C175.841 71.8907 175.975 71.8 176.209 71.8H176.977C177.063 71.8 177.137 71.832 177.201 71.896C177.265 71.96 177.297 72.0347 177.297 72.12C177.297 72.184 177.292 72.2427 177.281 72.296L175.201 82.584C175.148 82.8613 174.983 83 174.705 83H174.129C173.863 83 173.687 82.8667 173.601 82.6L171.617 76.44L169.617 82.6C169.543 82.8667 169.372 83 169.105 83H168.513ZM181.303 83.16C180.781 83.16 180.295 83.0533 179.847 82.84C179.41 82.6267 179.058 82.3387 178.791 81.976C178.535 81.6027 178.407 81.192 178.407 80.744C178.407 80.04 178.695 79.464 179.271 79.016C179.847 78.568 180.631 78.2693 181.623 78.12L184.023 77.784V77.32C184.023 76.2213 183.389 75.672 182.119 75.672C181.629 75.672 181.234 75.7733 180.935 75.976C180.637 76.168 180.418 76.3973 180.279 76.664C180.237 76.7707 180.189 76.8453 180.135 76.888C180.093 76.92 180.029 76.936 179.943 76.936H179.319C179.223 76.936 179.138 76.904 179.063 76.84C178.999 76.7653 178.967 76.68 178.967 76.584C178.967 76.3387 179.079 76.056 179.303 75.736C179.538 75.4053 179.895 75.1227 180.375 74.888C180.855 74.6427 181.442 74.52 182.135 74.52C183.33 74.52 184.183 74.7973 184.695 75.352C185.218 75.9067 185.479 76.6 185.479 77.432V82.632C185.479 82.7387 185.442 82.8293 185.367 82.904C185.303 82.968 185.218 83 185.111 83H184.407C184.301 83 184.215 82.968 184.151 82.904C184.087 82.8293 184.055 82.7387 184.055 82.632V81.928C183.821 82.28 183.479 82.5733 183.031 82.808C182.583 83.0427 182.007 83.16 181.303 83.16ZM181.623 81.992C182.327 81.992 182.903 81.7627 183.351 81.304C183.799 80.8453 184.023 80.1787 184.023 79.304V78.856L182.151 79.128C181.383 79.2347 180.802 79.416 180.407 79.672C180.013 79.928 179.815 80.248 179.815 80.632C179.815 81.0693 179.991 81.4053 180.343 81.64C180.706 81.8747 181.133 81.992 181.623 81.992ZM188.34 83C188.234 83 188.143 82.968 188.068 82.904C188.004 82.8293 187.972 82.7387 187.972 82.632V72.008C187.972 71.8907 188.004 71.8 188.068 71.736C188.143 71.672 188.234 71.64 188.34 71.64H189.044C189.151 71.64 189.236 71.6773 189.3 71.752C189.375 71.816 189.412 71.9013 189.412 72.008V82.632C189.412 82.7387 189.375 82.8293 189.3 82.904C189.236 82.968 189.151 83 189.044 83H188.34ZM192.36 83C192.253 83 192.162 82.968 192.088 82.904C192.024 82.8293 191.992 82.7387 191.992 82.632V72.008C191.992 71.8907 192.024 71.8 192.088 71.736C192.162 71.672 192.253 71.64 192.36 71.64H193.064C193.17 71.64 193.256 71.6773 193.32 71.752C193.394 71.816 193.432 71.9013 193.432 72.008V82.632C193.432 82.7387 193.394 82.8293 193.32 82.904C193.256 82.968 193.17 83 193.064 83H192.36ZM199.291 83.16C198.203 83.16 197.334 82.824 196.683 82.152C196.032 81.4693 195.675 80.5413 195.611 79.368L195.595 78.824L195.611 78.296C195.675 77.144 196.032 76.2267 196.683 75.544C197.334 74.8613 198.203 74.52 199.291 74.52C200.464 74.52 201.371 74.8933 202.011 75.64C202.662 76.3867 202.987 77.4 202.987 78.68V78.968C202.987 79.0747 202.95 79.1653 202.875 79.24C202.811 79.304 202.726 79.336 202.619 79.336H197.067V79.48C197.099 80.1733 197.312 80.7653 197.707 81.256C198.102 81.7467 198.624 81.992 199.275 81.992C199.776 81.992 200.182 81.896 200.491 81.704C200.811 81.5013 201.051 81.2933 201.211 81.08C201.307 80.952 201.382 80.8773 201.435 80.856C201.488 80.824 201.579 80.808 201.707 80.808H202.411C202.507 80.808 202.587 80.8347 202.651 80.888C202.726 80.9413 202.763 81.0107 202.763 81.096C202.763 81.3307 202.619 81.6133 202.331 81.944C202.043 82.2747 201.632 82.5627 201.099 82.808C200.576 83.0427 199.974 83.16 199.291 83.16ZM201.531 78.248V78.2C201.531 77.4533 201.328 76.8453 200.923 76.376C200.518 75.9067 199.974 75.672 199.291 75.672C198.598 75.672 198.054 75.9067 197.659 76.376C197.264 76.8453 197.067 77.4533 197.067 78.2V78.248H201.531ZM208.246 83C206.592 83 205.766 82.0667 205.766 80.2V75.912H204.502C204.395 75.912 204.31 75.88 204.246 75.816C204.182 75.752 204.15 75.6667 204.15 75.56V75.048C204.15 74.9413 204.182 74.856 204.246 74.792C204.31 74.7173 204.395 74.68 204.502 74.68H205.766V72.008C205.766 71.9013 205.798 71.816 205.862 71.752C205.926 71.6773 206.011 71.64 206.118 71.64H206.822C206.928 71.64 207.014 71.6773 207.078 71.752C207.152 71.816 207.19 71.9013 207.19 72.008V74.68H209.174C209.28 74.68 209.366 74.7173 209.43 74.792C209.504 74.856 209.542 74.9413 209.542 75.048V75.56C209.542 75.6667 209.504 75.752 209.43 75.816C209.366 75.88 209.28 75.912 209.174 75.912H207.19V80.088C207.19 80.632 207.275 81.0427 207.446 81.32C207.627 81.5973 207.931 81.736 208.358 81.736H209.334C209.44 81.736 209.526 81.7733 209.59 81.848C209.654 81.912 209.686 81.9973 209.686 82.104V82.632C209.686 82.7387 209.654 82.8293 209.59 82.904C209.526 82.968 209.44 83 209.334 83H208.246ZM214.257 83.16C213.521 83.16 212.897 83.0427 212.385 82.808C211.883 82.5627 211.51 82.2853 211.265 81.976C211.019 81.6667 210.897 81.4107 210.897 81.208C210.897 81.1013 210.934 81.0213 211.009 80.968C211.083 80.904 211.163 80.872 211.249 80.872H211.921C211.985 80.872 212.033 80.8827 212.065 80.904C212.107 80.9253 212.161 80.9733 212.225 81.048C212.47 81.3467 212.742 81.5813 213.041 81.752C213.35 81.9227 213.761 82.008 214.273 82.008C214.849 82.008 215.307 81.9013 215.649 81.688C216.001 81.4747 216.177 81.1653 216.177 80.76C216.177 80.4933 216.102 80.28 215.953 80.12C215.803 79.96 215.553 79.816 215.201 79.688C214.859 79.56 214.347 79.4213 213.665 79.272C212.737 79.0693 212.081 78.776 211.697 78.392C211.313 78.008 211.121 77.512 211.121 76.904C211.121 76.5093 211.238 76.1307 211.473 75.768C211.707 75.3947 212.054 75.096 212.513 74.872C212.982 74.6373 213.537 74.52 214.177 74.52C214.849 74.52 215.419 74.632 215.889 74.856C216.369 75.08 216.726 75.3413 216.961 75.64C217.206 75.9387 217.329 76.1893 217.329 76.392C217.329 76.488 217.291 76.568 217.217 76.632C217.153 76.696 217.073 76.728 216.977 76.728H216.369C216.219 76.728 216.113 76.6693 216.049 76.552C215.867 76.3493 215.713 76.1947 215.585 76.088C215.467 75.9707 215.291 75.8747 215.057 75.8C214.822 75.7147 214.529 75.672 214.177 75.672C213.654 75.672 213.254 75.784 212.977 76.008C212.699 76.2213 212.561 76.5093 212.561 76.872C212.561 77.096 212.619 77.288 212.737 77.448C212.854 77.5973 213.078 77.7413 213.409 77.88C213.739 78.008 214.23 78.1413 214.881 78.28C215.894 78.4933 216.609 78.7973 217.025 79.192C217.451 79.5867 217.665 80.0933 217.665 80.712C217.665 81.1707 217.531 81.5867 217.265 81.96C217.009 82.3333 216.619 82.6267 216.097 82.84C215.585 83.0533 214.971 83.16 214.257 83.16ZM224.351 83C224.245 83 224.159 82.968 224.095 82.904C224.031 82.8293 223.999 82.7387 223.999 82.632V72.168C223.999 72.0613 224.031 71.976 224.095 71.912C224.159 71.8373 224.245 71.8 224.351 71.8H225.151C225.269 71.8 225.359 71.832 225.423 71.896C225.487 71.96 225.519 72.0507 225.519 72.168V82.632C225.519 82.7387 225.482 82.8293 225.407 82.904C225.343 82.968 225.258 83 225.151 83H224.351ZM228.663 83C228.556 83 228.466 82.968 228.391 82.904C228.327 82.8293 228.295 82.7387 228.295 82.632V75.048C228.295 74.9413 228.327 74.856 228.391 74.792C228.466 74.7173 228.556 74.68 228.663 74.68H229.351C229.468 74.68 229.559 74.712 229.623 74.776C229.687 74.84 229.719 74.9307 229.719 75.048V75.752C230.039 75.3573 230.407 75.0533 230.823 74.84C231.25 74.6267 231.778 74.52 232.407 74.52C233.431 74.52 234.226 74.8507 234.791 75.512C235.356 76.1627 235.639 77.0267 235.639 78.104V82.632C235.639 82.7387 235.602 82.8293 235.527 82.904C235.463 82.968 235.378 83 235.271 83H234.535C234.428 83 234.338 82.968 234.263 82.904C234.199 82.8293 234.167 82.7387 234.167 82.632V78.2C234.167 77.432 233.98 76.8347 233.607 76.408C233.234 75.9813 232.7 75.768 232.007 75.768C231.324 75.768 230.78 75.9867 230.375 76.424C229.97 76.8507 229.767 77.4427 229.767 78.2V82.632C229.767 82.7387 229.73 82.8293 229.655 82.904C229.591 82.968 229.506 83 229.399 83H228.663ZM240.773 83C240.496 83 240.298 82.8667 240.181 82.6L237.205 75.176C237.194 75.144 237.189 75.0907 237.189 75.016C237.189 74.92 237.221 74.84 237.285 74.776C237.349 74.712 237.424 74.68 237.509 74.68H238.245C238.416 74.68 238.544 74.7653 238.629 74.936L241.093 81.32L243.557 74.936C243.578 74.872 243.621 74.8133 243.685 74.76C243.76 74.7067 243.845 74.68 243.941 74.68H244.677C244.762 74.68 244.837 74.712 244.901 74.776C244.965 74.84 244.997 74.92 244.997 75.016L244.965 75.176L242.005 82.6C241.888 82.8667 241.69 83 241.413 83H240.773ZM249.864 83.16C248.776 83.16 247.907 82.824 247.256 82.152C246.605 81.4693 246.248 80.5413 246.184 79.368L246.168 78.824L246.184 78.296C246.248 77.144 246.605 76.2267 247.256 75.544C247.907 74.8613 248.776 74.52 249.864 74.52C251.037 74.52 251.944 74.8933 252.584 75.64C253.235 76.3867 253.56 77.4 253.56 78.68V78.968C253.56 79.0747 253.523 79.1653 253.448 79.24C253.384 79.304 253.299 79.336 253.192 79.336H247.64V79.48C247.672 80.1733 247.885 80.7653 248.28 81.256C248.675 81.7467 249.197 81.992 249.848 81.992C250.349 81.992 250.755 81.896 251.064 81.704C251.384 81.5013 251.624 81.2933 251.784 81.08C251.88 80.952 251.955 80.8773 252.008 80.856C252.061 80.824 252.152 80.808 252.28 80.808H252.984C253.08 80.808 253.16 80.8347 253.224 80.888C253.299 80.9413 253.336 81.0107 253.336 81.096C253.336 81.3307 253.192 81.6133 252.904 81.944C252.616 82.2747 252.205 82.5627 251.672 82.808C251.149 83.0427 250.547 83.16 249.864 83.16ZM252.104 78.248V78.2C252.104 77.4533 251.901 76.8453 251.496 76.376C251.091 75.9067 250.547 75.672 249.864 75.672C249.171 75.672 248.627 75.9067 248.232 76.376C247.837 76.8453 247.64 77.4533 247.64 78.2V78.248H252.104ZM258.514 83.16C257.778 83.16 257.154 83.0427 256.642 82.808C256.14 82.5627 255.767 82.2853 255.522 81.976C255.276 81.6667 255.154 81.4107 255.154 81.208C255.154 81.1013 255.191 81.0213 255.266 80.968C255.34 80.904 255.42 80.872 255.506 80.872H256.178C256.242 80.872 256.29 80.8827 256.322 80.904C256.364 80.9253 256.418 80.9733 256.482 81.048C256.727 81.3467 256.999 81.5813 257.298 81.752C257.607 81.9227 258.018 82.008 258.53 82.008C259.106 82.008 259.564 81.9013 259.906 81.688C260.258 81.4747 260.434 81.1653 260.434 80.76C260.434 80.4933 260.359 80.28 260.21 80.12C260.06 79.96 259.81 79.816 259.458 79.688C259.116 79.56 258.604 79.4213 257.922 79.272C256.994 79.0693 256.338 78.776 255.954 78.392C255.57 78.008 255.378 77.512 255.378 76.904C255.378 76.5093 255.495 76.1307 255.73 75.768C255.964 75.3947 256.311 75.096 256.77 74.872C257.239 74.6373 257.794 74.52 258.434 74.52C259.106 74.52 259.676 74.632 260.146 74.856C260.626 75.08 260.983 75.3413 261.218 75.64C261.463 75.9387 261.586 76.1893 261.586 76.392C261.586 76.488 261.548 76.568 261.474 76.632C261.41 76.696 261.33 76.728 261.234 76.728H260.626C260.476 76.728 260.37 76.6693 260.306 76.552C260.124 76.3493 259.97 76.1947 259.842 76.088C259.724 75.9707 259.548 75.8747 259.314 75.8C259.079 75.7147 258.786 75.672 258.434 75.672C257.911 75.672 257.511 75.784 257.234 76.008C256.956 76.2213 256.818 76.5093 256.818 76.872C256.818 77.096 256.876 77.288 256.994 77.448C257.111 77.5973 257.335 77.7413 257.666 77.88C257.996 78.008 258.487 78.1413 259.138 78.28C260.151 78.4933 260.866 78.7973 261.282 79.192C261.708 79.5867 261.922 80.0933 261.922 80.712C261.922 81.1707 261.788 81.5867 261.522 81.96C261.266 82.3333 260.876 82.6267 260.354 82.84C259.842 83.0533 259.228 83.16 258.514 83.16ZM267.135 83C265.482 83 264.655 82.0667 264.655 80.2V75.912H263.391C263.284 75.912 263.199 75.88 263.135 75.816C263.071 75.752 263.039 75.6667 263.039 75.56V75.048C263.039 74.9413 263.071 74.856 263.135 74.792C263.199 74.7173 263.284 74.68 263.391 74.68H264.655V72.008C264.655 71.9013 264.687 71.816 264.751 71.752C264.815 71.6773 264.9 71.64 265.007 71.64H265.711C265.818 71.64 265.903 71.6773 265.967 71.752C266.042 71.816 266.079 71.9013 266.079 72.008V74.68H268.063C268.17 74.68 268.255 74.7173 268.319 74.792C268.394 74.856 268.431 74.9413 268.431 75.048V75.56C268.431 75.6667 268.394 75.752 268.319 75.816C268.255 75.88 268.17 75.912 268.063 75.912H266.079V80.088C266.079 80.632 266.164 81.0427 266.335 81.32C266.516 81.5973 266.82 81.736 267.247 81.736H268.223C268.33 81.736 268.415 81.7733 268.479 81.848C268.543 81.912 268.575 81.9973 268.575 82.104V82.632C268.575 82.7387 268.543 82.8293 268.479 82.904C268.415 82.968 268.33 83 268.223 83H267.135ZM273.674 83.16C272.501 83.16 271.594 82.8293 270.954 82.168C270.325 81.5067 269.989 80.6267 269.946 79.528L269.93 78.84L269.946 78.152C269.989 77.0533 270.33 76.1733 270.97 75.512C271.621 74.8507 272.522 74.52 273.674 74.52C274.826 74.52 275.722 74.8507 276.362 75.512C277.013 76.1733 277.359 77.0533 277.402 78.152C277.423 78.3867 277.434 78.616 277.434 78.84C277.434 79.064 277.423 79.2933 277.402 79.528C277.359 80.6267 277.018 81.5067 276.378 82.168C275.749 82.8293 274.847 83.16 273.674 83.16ZM273.674 81.96C274.357 81.96 274.895 81.7467 275.29 81.32C275.695 80.8827 275.914 80.2587 275.946 79.448C275.957 79.3413 275.962 79.1387 275.962 78.84C275.962 78.5413 275.957 78.3387 275.946 78.232C275.914 77.4213 275.695 76.8027 275.29 76.376C274.895 75.9387 274.357 75.72 273.674 75.72C272.991 75.72 272.447 75.9387 272.042 76.376C271.647 76.8027 271.434 77.4213 271.402 78.232L271.386 78.84L271.402 79.448C271.434 80.2587 271.647 80.8827 272.042 81.32C272.447 81.7467 272.991 81.96 273.674 81.96ZM279.982 83C279.876 83 279.785 82.968 279.71 82.904C279.646 82.8293 279.614 82.7387 279.614 82.632V75.064C279.614 74.9573 279.646 74.8667 279.71 74.792C279.785 74.7173 279.876 74.68 279.982 74.68H280.654C280.772 74.68 280.862 74.7173 280.926 74.792C281.001 74.856 281.038 74.9467 281.038 75.064V75.768C281.476 75.0427 282.217 74.68 283.262 74.68H283.886C284.004 74.68 284.094 74.712 284.158 74.776C284.222 74.84 284.254 74.9307 284.254 75.048V75.64C284.254 75.7467 284.222 75.8373 284.158 75.912C284.094 75.976 284.004 76.008 283.886 76.008H282.974C282.388 76.008 281.924 76.1787 281.582 76.52C281.252 76.8613 281.086 77.3253 281.086 77.912V82.632C281.086 82.7387 281.049 82.8293 280.974 82.904C280.9 82.968 280.809 83 280.702 83H279.982Z" fill="#E0E0E0"/>
<path d="M115.08 44C114.813 44 114.573 43.9067 114.36 43.72C114.173 43.5067 114.08 43.2667 114.08 43V24.28L108.72 28.4C108.507 28.5333 108.307 28.6 108.12 28.6C107.8 28.6 107.52 28.44 107.28 28.12L104.8 24.92C104.693 24.7333 104.64 24.5333 104.64 24.32C104.64 23.9467 104.787 23.6533 105.08 23.44L114.36 16.28C114.627 16.0933 114.933 16 115.28 16H120.56C120.853 16 121.093 16.0933 121.28 16.28C121.493 16.4667 121.6 16.7067 121.6 17V43C121.6 43.2933 121.493 43.5333 121.28 43.72C121.093 43.9067 120.853 44 120.56 44H115.08ZM137.796 44.4C134.116 44.3733 131.316 43.4 129.396 41.48C127.476 39.56 126.423 37.0267 126.236 33.88C126.183 32.44 126.156 31.1467 126.156 30C126.156 28.8267 126.183 27.4933 126.236 26C126.343 24 126.836 22.2267 127.716 20.68C128.623 19.1067 129.916 17.8667 131.596 16.96C133.303 16.0533 135.37 15.6 137.796 15.6C140.223 15.6 142.29 16.0533 143.996 16.96C145.703 17.8667 146.996 19.1067 147.876 20.68C148.783 22.2267 149.29 24 149.396 26C149.45 26.7467 149.476 28.08 149.476 30C149.476 31.8667 149.45 33.16 149.396 33.88C149.21 37.0267 148.156 39.56 146.236 41.48C144.316 43.4 141.503 44.3733 137.796 44.4ZM137.796 38.36C139.05 38.36 139.983 37.96 140.596 37.16C141.21 36.3333 141.543 35.1733 141.596 33.68C141.65 32.9067 141.676 31.6533 141.676 29.92C141.676 28.1867 141.65 26.96 141.596 26.24C141.543 24.8 141.21 23.6667 140.596 22.84C139.983 21.9867 139.05 21.56 137.796 21.56C135.396 21.56 134.13 23.12 133.996 26.24C133.97 26.96 133.956 28.1867 133.956 29.92C133.956 31.6533 133.97 32.9067 133.996 33.68C134.13 36.8 135.396 38.36 137.796 38.36ZM155.26 44C154.967 44 154.713 43.9067 154.5 43.72C154.313 43.5333 154.22 43.2933 154.22 43V17.04C154.22 16.7467 154.313 16.5067 154.5 16.32C154.713 16.1067 154.967 16 155.26 16H159.78C160.447 16 160.927 16.2933 161.22 16.88L168.1 29.2L175.02 16.88C175.313 16.2933 175.793 16 176.46 16H180.98C181.273 16 181.513 16.1067 181.7 16.32C181.913 16.5067 182.02 16.7467 182.02 17.04V43C182.02 43.2933 181.913 43.5333 181.7 43.72C181.513 43.9067 181.273 44 180.98 44H175.9C175.633 44 175.393 43.9067 175.18 43.72C174.993 43.5067 174.9 43.2667 174.9 43V28.44L170.58 36.36C170.233 36.9733 169.767 37.28 169.18 37.28H167.02C166.487 37.28 166.02 36.9733 165.62 36.36L161.34 28.44V43C161.34 43.2933 161.233 43.5333 161.02 43.72C160.833 43.9067 160.593 44 160.3 44H155.26ZM195.142 42.68C194.876 42.68 194.636 42.5867 194.422 42.4C194.236 42.1867 194.142 41.9467 194.142 41.68V34.44H187.102C186.836 34.44 186.596 34.3467 186.382 34.16C186.196 33.9467 186.102 33.7067 186.102 33.44V30.36C186.102 30.0667 186.196 29.8267 186.382 29.64C186.569 29.4267 186.809 29.32 187.102 29.32H194.142V22.32C194.142 22.0267 194.236 21.7867 194.422 21.6C194.636 21.4133 194.876 21.32 195.142 21.32H198.582C198.876 21.32 199.116 21.4133 199.302 21.6C199.516 21.7867 199.622 22.0267 199.622 22.32V29.32H206.582C206.876 29.32 207.116 29.4267 207.302 29.64C207.516 29.8267 207.622 30.0667 207.622 30.36V33.44C207.622 33.7333 207.516 33.9733 207.302 34.16C207.116 34.3467 206.876 34.44 206.582 34.44H199.622V41.68C199.622 41.9733 199.516 42.2133 199.302 42.4C199.116 42.5867 198.876 42.68 198.582 42.68H195.142Z" fill="white"/>
<circle opacity="0.1" cx="40" cy="40" r="40" fill="white"/>
<path d="M45.9875 25.0453C44.4672 23.4039 42.3438 22.5 40 22.5C37.6438 22.5 35.5133 23.3984 34 25.0297C32.4703 26.6789 31.725 28.9203 31.9 31.3406C32.2469 36.1156 35.8805 40 40 40C44.1195 40 47.7469 36.1164 48.0992 31.3422C48.2766 28.9437 47.5266 26.707 45.9875 25.0453Z" fill="#3671E9"/>
<path d="M53.7499 57.5H26.2499C25.8899 57.5047 25.5335 57.4291 25.2064 57.2786C24.8794 57.1282 24.59 56.9068 24.3593 56.6305C23.8515 56.0234 23.6468 55.1945 23.7983 54.3562C24.4577 50.6984 26.5155 47.6258 29.7499 45.4687C32.6233 43.5539 36.2632 42.5 39.9999 42.5C43.7366 42.5 47.3765 43.5547 50.2499 45.4687C53.4843 47.625 55.5421 50.6977 56.2015 54.3555C56.353 55.1937 56.1483 56.0227 55.6405 56.6297C55.4099 56.9062 55.1205 57.1277 54.7935 57.2783C54.4664 57.4288 54.1099 57.5046 53.7499 57.5Z" fill="#3671E9"/>
</svg>
