<svg width="334" height="92" viewBox="0 0 334 92" fill="none" xmlns="http://www.w3.org/2000/svg">
<path d="M109.408 83.16C107.989 83.16 106.907 82.776 106.16 82.008C105.424 81.2293 105.029 80.168 104.976 78.824C104.965 78.536 104.96 78.0667 104.96 77.416C104.96 76.7547 104.965 76.2747 104.976 75.976C105.029 74.632 105.424 73.576 106.16 72.808C106.907 72.0293 107.989 71.64 109.408 71.64C110.357 71.64 111.163 71.8107 111.824 72.152C112.485 72.4827 112.981 72.92 113.312 73.464C113.653 74.008 113.84 74.5893 113.872 75.208C113.872 75.304 113.835 75.384 113.76 75.448C113.696 75.5013 113.616 75.528 113.52 75.528H112.72C112.613 75.528 112.528 75.5013 112.464 75.448C112.4 75.3947 112.352 75.304 112.32 75.176C112.139 74.3547 111.808 73.7787 111.328 73.448C110.859 73.1173 110.219 72.952 109.408 72.952C107.552 72.952 106.587 73.9867 106.512 76.056C106.501 76.344 106.496 76.7867 106.496 77.384C106.496 77.9813 106.501 78.4347 106.512 78.744C106.587 80.8027 107.552 81.832 109.408 81.832C110.208 81.832 110.848 81.6667 111.328 81.336C111.808 81.0053 112.139 80.4347 112.32 79.624C112.352 79.496 112.4 79.4053 112.464 79.352C112.528 79.2987 112.613 79.272 112.72 79.272H113.52C113.616 79.272 113.696 79.304 113.76 79.368C113.835 79.4213 113.872 79.496 113.872 79.592C113.84 80.2107 113.653 80.792 113.312 81.336C112.981 81.88 112.485 82.3227 111.824 82.664C111.163 82.9947 110.357 83.16 109.408 83.16ZM119.377 83.16C118.203 83.16 117.297 82.8293 116.657 82.168C116.027 81.5067 115.691 80.6267 115.649 79.528L115.633 78.84L115.649 78.152C115.691 77.0533 116.033 76.1733 116.673 75.512C117.323 74.8507 118.225 74.52 119.377 74.52C120.529 74.52 121.425 74.8507 122.065 75.512C122.715 76.1733 123.062 77.0533 123.105 78.152C123.126 78.3867 123.137 78.616 123.137 78.84C123.137 79.064 123.126 79.2933 123.105 79.528C123.062 80.6267 122.721 81.5067 122.081 82.168C121.451 82.8293 120.55 83.16 119.377 83.16ZM119.377 81.96C120.059 81.96 120.598 81.7467 120.993 81.32C121.398 80.8827 121.617 80.2587 121.649 79.448C121.659 79.3413 121.665 79.1387 121.665 78.84C121.665 78.5413 121.659 78.3387 121.649 78.232C121.617 77.4213 121.398 76.8027 120.993 76.376C120.598 75.9387 120.059 75.72 119.377 75.72C118.694 75.72 118.15 75.9387 117.745 76.376C117.35 76.8027 117.137 77.4213 117.105 78.232L117.089 78.84L117.105 79.448C117.137 80.2587 117.35 80.8827 117.745 81.32C118.15 81.7467 118.694 81.96 119.377 81.96ZM128.421 83.16C127.408 83.16 126.624 82.8347 126.069 82.184C125.514 81.5227 125.237 80.648 125.237 79.56V75.048C125.237 74.9413 125.269 74.856 125.333 74.792C125.408 74.7173 125.498 74.68 125.605 74.68H126.341C126.448 74.68 126.533 74.7173 126.597 74.792C126.672 74.856 126.709 74.9413 126.709 75.048V79.48C126.709 81.1013 127.413 81.912 128.821 81.912C129.504 81.912 130.042 81.6987 130.437 81.272C130.842 80.8347 131.045 80.2373 131.045 79.48V75.048C131.045 74.9413 131.077 74.856 131.141 74.792C131.216 74.7173 131.306 74.68 131.413 74.68H132.149C132.256 74.68 132.341 74.7173 132.405 74.792C132.48 74.856 132.517 74.9413 132.517 75.048V82.632C132.517 82.7387 132.48 82.8293 132.405 82.904C132.341 82.968 132.256 83 132.149 83H131.461C131.354 83 131.264 82.968 131.189 82.904C131.125 82.8293 131.093 82.7387 131.093 82.632V81.912C130.784 82.328 130.421 82.6427 130.005 82.856C129.589 83.0587 129.061 83.16 128.421 83.16ZM135.439 83C135.332 83 135.241 82.968 135.167 82.904C135.103 82.8293 135.071 82.7387 135.071 82.632V75.048C135.071 74.9413 135.103 74.856 135.167 74.792C135.241 74.7173 135.332 74.68 135.439 74.68H136.127C136.244 74.68 136.335 74.712 136.399 74.776C136.463 74.84 136.495 74.9307 136.495 75.048V75.752C136.815 75.3573 137.183 75.0533 137.599 74.84C138.025 74.6267 138.553 74.52 139.183 74.52C140.207 74.52 141.001 74.8507 141.567 75.512C142.132 76.1627 142.415 77.0267 142.415 78.104V82.632C142.415 82.7387 142.377 82.8293 142.303 82.904C142.239 82.968 142.153 83 142.047 83H141.311C141.204 83 141.113 82.968 141.039 82.904C140.975 82.8293 140.943 82.7387 140.943 82.632V78.2C140.943 77.432 140.756 76.8347 140.383 76.408C140.009 75.9813 139.476 75.768 138.783 75.768C138.1 75.768 137.556 75.9867 137.151 76.424C136.745 76.8507 136.543 77.4427 136.543 78.2V82.632C136.543 82.7387 136.505 82.8293 136.431 82.904C136.367 82.968 136.281 83 136.175 83H135.439ZM147.977 83C146.324 83 145.497 82.0667 145.497 80.2V75.912H144.233C144.127 75.912 144.041 75.88 143.977 75.816C143.913 75.752 143.881 75.6667 143.881 75.56V75.048C143.881 74.9413 143.913 74.856 143.977 74.792C144.041 74.7173 144.127 74.68 144.233 74.68H145.497V72.008C145.497 71.9013 145.529 71.816 145.593 71.752C145.657 71.6773 145.743 71.64 145.849 71.64H146.553C146.66 71.64 146.745 71.6773 146.809 71.752C146.884 71.816 146.921 71.9013 146.921 72.008V74.68H148.905C149.012 74.68 149.097 74.7173 149.161 74.792C149.236 74.856 149.273 74.9413 149.273 75.048V75.56C149.273 75.6667 149.236 75.752 149.161 75.816C149.097 75.88 149.012 75.912 148.905 75.912H146.921V80.088C146.921 80.632 147.007 81.0427 147.177 81.32C147.359 81.5973 147.663 81.736 148.089 81.736H149.065C149.172 81.736 149.257 81.7733 149.321 81.848C149.385 81.912 149.417 81.9973 149.417 82.104V82.632C149.417 82.7387 149.385 82.8293 149.321 82.904C149.257 82.968 149.172 83 149.065 83H147.977ZM151.509 83C151.402 83 151.311 82.968 151.237 82.904C151.173 82.8293 151.141 82.7387 151.141 82.632V75.064C151.141 74.9573 151.173 74.8667 151.237 74.792C151.311 74.7173 151.402 74.68 151.509 74.68H152.181C152.298 74.68 152.389 74.7173 152.453 74.792C152.527 74.856 152.565 74.9467 152.565 75.064V75.768C153.002 75.0427 153.743 74.68 154.789 74.68H155.413C155.53 74.68 155.621 74.712 155.685 74.776C155.749 74.84 155.781 74.9307 155.781 75.048V75.64C155.781 75.7467 155.749 75.8373 155.685 75.912C155.621 75.976 155.53 76.008 155.413 76.008H154.501C153.914 76.008 153.45 76.1787 153.109 76.52C152.778 76.8613 152.613 77.3253 152.613 77.912V82.632C152.613 82.7387 152.575 82.8293 152.501 82.904C152.426 82.968 152.335 83 152.229 83H151.509ZM157.556 73.112C157.45 73.112 157.359 73.08 157.284 73.016C157.22 72.9413 157.188 72.8507 157.188 72.744V71.912C157.188 71.8053 157.22 71.7147 157.284 71.64C157.359 71.5653 157.45 71.528 157.556 71.528H158.5C158.607 71.528 158.698 71.5653 158.772 71.64C158.847 71.7147 158.884 71.8053 158.884 71.912V72.744C158.884 72.8507 158.847 72.9413 158.772 73.016C158.698 73.08 158.607 73.112 158.5 73.112H157.556ZM157.684 83C157.578 83 157.487 82.968 157.412 82.904C157.348 82.8293 157.316 82.7387 157.316 82.632V75.048C157.316 74.9413 157.348 74.856 157.412 74.792C157.487 74.7173 157.578 74.68 157.684 74.68H158.388C158.495 74.68 158.58 74.7173 158.644 74.792C158.719 74.856 158.756 74.9413 158.756 75.048V82.632C158.756 82.7387 158.719 82.8293 158.644 82.904C158.58 82.968 158.495 83 158.388 83H157.684ZM164.616 83.16C163.528 83.16 162.659 82.824 162.008 82.152C161.357 81.4693 161 80.5413 160.936 79.368L160.92 78.824L160.936 78.296C161 77.144 161.357 76.2267 162.008 75.544C162.659 74.8613 163.528 74.52 164.616 74.52C165.789 74.52 166.696 74.8933 167.336 75.64C167.987 76.3867 168.312 77.4 168.312 78.68V78.968C168.312 79.0747 168.275 79.1653 168.2 79.24C168.136 79.304 168.051 79.336 167.944 79.336H162.392V79.48C162.424 80.1733 162.637 80.7653 163.032 81.256C163.427 81.7467 163.949 81.992 164.6 81.992C165.101 81.992 165.507 81.896 165.816 81.704C166.136 81.5013 166.376 81.2933 166.536 81.08C166.632 80.952 166.707 80.8773 166.76 80.856C166.813 80.824 166.904 80.808 167.032 80.808H167.736C167.832 80.808 167.912 80.8347 167.976 80.888C168.051 80.9413 168.088 81.0107 168.088 81.096C168.088 81.3307 167.944 81.6133 167.656 81.944C167.368 82.2747 166.957 82.5627 166.424 82.808C165.901 83.0427 165.299 83.16 164.616 83.16ZM166.856 78.248V78.2C166.856 77.4533 166.653 76.8453 166.248 76.376C165.843 75.9067 165.299 75.672 164.616 75.672C163.923 75.672 163.379 75.9067 162.984 76.376C162.589 76.8453 162.392 77.4533 162.392 78.2V78.248H166.856ZM173.265 83.16C172.529 83.16 171.905 83.0427 171.393 82.808C170.892 82.5627 170.519 82.2853 170.273 81.976C170.028 81.6667 169.905 81.4107 169.905 81.208C169.905 81.1013 169.943 81.0213 170.017 80.968C170.092 80.904 170.172 80.872 170.257 80.872H170.929C170.993 80.872 171.041 80.8827 171.073 80.904C171.116 80.9253 171.169 80.9733 171.233 81.048C171.479 81.3467 171.751 81.5813 172.049 81.752C172.359 81.9227 172.769 82.008 173.281 82.008C173.857 82.008 174.316 81.9013 174.657 81.688C175.009 81.4747 175.185 81.1653 175.185 80.76C175.185 80.4933 175.111 80.28 174.961 80.12C174.812 79.96 174.561 79.816 174.209 79.688C173.868 79.56 173.356 79.4213 172.673 79.272C171.745 79.0693 171.089 78.776 170.705 78.392C170.321 78.008 170.129 77.512 170.129 76.904C170.129 76.5093 170.247 76.1307 170.481 75.768C170.716 75.3947 171.063 75.096 171.521 74.872C171.991 74.6373 172.545 74.52 173.185 74.52C173.857 74.52 174.428 74.632 174.897 74.856C175.377 75.08 175.735 75.3413 175.969 75.64C176.215 75.9387 176.337 76.1893 176.337 76.392C176.337 76.488 176.3 76.568 176.225 76.632C176.161 76.696 176.081 76.728 175.985 76.728H175.377C175.228 76.728 175.121 76.6693 175.057 76.552C174.876 76.3493 174.721 76.1947 174.593 76.088C174.476 75.9707 174.3 75.8747 174.065 75.8C173.831 75.7147 173.537 75.672 173.185 75.672C172.663 75.672 172.263 75.784 171.985 76.008C171.708 76.2213 171.569 76.5093 171.569 76.872C171.569 77.096 171.628 77.288 171.745 77.448C171.863 77.5973 172.087 77.7413 172.417 77.88C172.748 78.008 173.239 78.1413 173.889 78.28C174.903 78.4933 175.617 78.7973 176.033 79.192C176.46 79.5867 176.673 80.0933 176.673 80.712C176.673 81.1707 176.54 81.5867 176.273 81.96C176.017 82.3333 175.628 82.6267 175.105 82.84C174.593 83.0533 173.98 83.16 173.265 83.16ZM186.576 83.16C185.701 83.16 184.939 83.0213 184.288 82.744C183.648 82.4667 183.157 82.104 182.816 81.656C182.485 81.1973 182.309 80.7067 182.288 80.184C182.288 80.0987 182.32 80.024 182.384 79.96C182.448 79.896 182.528 79.864 182.624 79.864H183.408C183.6 79.864 183.733 79.9707 183.808 80.184C183.904 80.632 184.176 81.0213 184.624 81.352C185.083 81.672 185.733 81.832 186.576 81.832C187.483 81.832 188.16 81.672 188.608 81.352C189.056 81.032 189.28 80.5893 189.28 80.024C189.28 79.6613 189.168 79.3627 188.944 79.128C188.731 78.8933 188.405 78.6907 187.968 78.52C187.541 78.3387 186.896 78.12 186.032 77.864C185.211 77.6293 184.555 77.3787 184.064 77.112C183.584 76.8453 183.221 76.52 182.976 76.136C182.731 75.7413 182.608 75.2453 182.608 74.648C182.608 74.072 182.763 73.56 183.072 73.112C183.381 72.6533 183.829 72.296 184.416 72.04C185.003 71.7733 185.696 71.64 186.496 71.64C187.328 71.64 188.037 71.7893 188.624 72.088C189.221 72.376 189.675 72.744 189.984 73.192C190.293 73.6293 190.459 74.072 190.48 74.52C190.48 74.616 190.448 74.696 190.384 74.76C190.32 74.824 190.24 74.856 190.144 74.856H189.344C189.259 74.856 189.179 74.8293 189.104 74.776C189.029 74.7227 188.976 74.6427 188.944 74.536C188.88 74.0773 188.624 73.6987 188.176 73.4C187.728 73.1013 187.168 72.952 186.496 72.952C185.771 72.952 185.195 73.096 184.768 73.384C184.341 73.6613 184.128 74.0773 184.128 74.632C184.128 75.0053 184.224 75.3093 184.416 75.544C184.619 75.7787 184.923 75.9867 185.328 76.168C185.744 76.3493 186.347 76.5573 187.136 76.792C188.043 77.048 188.752 77.304 189.264 77.56C189.787 77.816 190.176 78.136 190.432 78.52C190.688 78.8933 190.816 79.3787 190.816 79.976C190.816 80.9787 190.432 81.7627 189.664 82.328C188.907 82.8827 187.877 83.16 186.576 83.16ZM195.986 83.16C194.973 83.16 194.189 82.8347 193.634 82.184C193.079 81.5227 192.802 80.648 192.802 79.56V75.048C192.802 74.9413 192.834 74.856 192.898 74.792C192.973 74.7173 193.063 74.68 193.17 74.68H193.906C194.013 74.68 194.098 74.7173 194.162 74.792C194.237 74.856 194.274 74.9413 194.274 75.048V79.48C194.274 81.1013 194.978 81.912 196.386 81.912C197.069 81.912 197.607 81.6987 198.002 81.272C198.407 80.8347 198.61 80.2373 198.61 79.48V75.048C198.61 74.9413 198.642 74.856 198.706 74.792C198.781 74.7173 198.871 74.68 198.978 74.68H199.714C199.821 74.68 199.906 74.7173 199.97 74.792C200.045 74.856 200.082 74.9413 200.082 75.048V82.632C200.082 82.7387 200.045 82.8293 199.97 82.904C199.906 82.968 199.821 83 199.714 83H199.026C198.919 83 198.829 82.968 198.754 82.904C198.69 82.8293 198.658 82.7387 198.658 82.632V81.912C198.349 82.328 197.986 82.6427 197.57 82.856C197.154 83.0587 196.626 83.16 195.986 83.16ZM203.02 86.04C202.913 86.04 202.822 86.008 202.748 85.944C202.684 85.88 202.652 85.7893 202.652 85.672V75.048C202.652 74.9307 202.684 74.84 202.748 74.776C202.822 74.712 202.913 74.68 203.02 74.68H203.692C203.809 74.68 203.9 74.712 203.964 74.776C204.028 74.84 204.06 74.9307 204.06 75.048V75.752C204.678 74.9307 205.558 74.52 206.7 74.52C207.82 74.52 208.657 74.8773 209.212 75.592C209.777 76.296 210.076 77.1973 210.108 78.296C210.118 78.4133 210.124 78.5947 210.124 78.84C210.124 79.0853 210.118 79.2667 210.108 79.384C210.076 80.472 209.777 81.3733 209.212 82.088C208.657 82.8027 207.82 83.16 206.7 83.16C205.558 83.16 204.694 82.7547 204.108 81.944V85.672C204.108 85.7787 204.07 85.864 203.996 85.928C203.932 86.0027 203.846 86.04 203.74 86.04H203.02ZM206.396 81.912C207.164 81.912 207.724 81.672 208.076 81.192C208.428 80.712 208.62 80.0827 208.652 79.304C208.662 79.1973 208.668 79.0427 208.668 78.84C208.668 76.792 207.91 75.768 206.396 75.768C205.649 75.768 205.084 76.0187 204.7 76.52C204.326 77.0107 204.129 77.592 204.108 78.264C204.097 78.3813 204.092 78.5893 204.092 78.888C204.092 79.1867 204.097 79.3947 204.108 79.512C204.129 80.1627 204.332 80.728 204.716 81.208C205.11 81.6773 205.67 81.912 206.396 81.912ZM212.68 86.04C212.573 86.04 212.482 86.008 212.408 85.944C212.344 85.88 212.312 85.7893 212.312 85.672V75.048C212.312 74.9307 212.344 74.84 212.408 74.776C212.482 74.712 212.573 74.68 212.68 74.68H213.352C213.469 74.68 213.56 74.712 213.624 74.776C213.688 74.84 213.72 74.9307 213.72 75.048V75.752C214.338 74.9307 215.218 74.52 216.36 74.52C217.48 74.52 218.317 74.8773 218.872 75.592C219.437 76.296 219.736 77.1973 219.768 78.296C219.778 78.4133 219.784 78.5947 219.784 78.84C219.784 79.0853 219.778 79.2667 219.768 79.384C219.736 80.472 219.437 81.3733 218.872 82.088C218.317 82.8027 217.48 83.16 216.36 83.16C215.218 83.16 214.354 82.7547 213.768 81.944V85.672C213.768 85.7787 213.73 85.864 213.656 85.928C213.592 86.0027 213.506 86.04 213.4 86.04H212.68ZM216.056 81.912C216.824 81.912 217.384 81.672 217.736 81.192C218.088 80.712 218.28 80.0827 218.312 79.304C218.322 79.1973 218.328 79.0427 218.328 78.84C218.328 76.792 217.57 75.768 216.056 75.768C215.309 75.768 214.744 76.0187 214.36 76.52C213.986 77.0107 213.789 77.592 213.768 78.264C213.757 78.3813 213.752 78.5893 213.752 78.888C213.752 79.1867 213.757 79.3947 213.768 79.512C213.789 80.1627 213.992 80.728 214.376 81.208C214.77 81.6773 215.33 81.912 216.056 81.912ZM225.332 83.16C224.158 83.16 223.252 82.8293 222.612 82.168C221.982 81.5067 221.646 80.6267 221.604 79.528L221.588 78.84L221.604 78.152C221.646 77.0533 221.988 76.1733 222.628 75.512C223.278 74.8507 224.18 74.52 225.332 74.52C226.484 74.52 227.38 74.8507 228.02 75.512C228.67 76.1733 229.017 77.0533 229.06 78.152C229.081 78.3867 229.092 78.616 229.092 78.84C229.092 79.064 229.081 79.2933 229.06 79.528C229.017 80.6267 228.676 81.5067 228.036 82.168C227.406 82.8293 226.505 83.16 225.332 83.16ZM225.332 81.96C226.014 81.96 226.553 81.7467 226.948 81.32C227.353 80.8827 227.572 80.2587 227.604 79.448C227.614 79.3413 227.62 79.1387 227.62 78.84C227.62 78.5413 227.614 78.3387 227.604 78.232C227.572 77.4213 227.353 76.8027 226.948 76.376C226.553 75.9387 226.014 75.72 225.332 75.72C224.649 75.72 224.105 75.9387 223.7 76.376C223.305 76.8027 223.092 77.4213 223.06 78.232L223.044 78.84L223.06 79.448C223.092 80.2587 223.305 80.8827 223.7 81.32C224.105 81.7467 224.649 81.96 225.332 81.96ZM231.64 83C231.533 83 231.443 82.968 231.368 82.904C231.304 82.8293 231.272 82.7387 231.272 82.632V75.064C231.272 74.9573 231.304 74.8667 231.368 74.792C231.443 74.7173 231.533 74.68 231.64 74.68H232.312C232.429 74.68 232.52 74.7173 232.584 74.792C232.659 74.856 232.696 74.9467 232.696 75.064V75.768C233.133 75.0427 233.875 74.68 234.92 74.68H235.544C235.661 74.68 235.752 74.712 235.816 74.776C235.88 74.84 235.912 74.9307 235.912 75.048V75.64C235.912 75.7467 235.88 75.8373 235.816 75.912C235.752 75.976 235.661 76.008 235.544 76.008H234.632C234.045 76.008 233.581 76.1787 233.24 76.52C232.909 76.8613 232.744 77.3253 232.744 77.912V82.632C232.744 82.7387 232.707 82.8293 232.632 82.904C232.557 82.968 232.467 83 232.36 83H231.64ZM240.647 83C238.994 83 238.167 82.0667 238.167 80.2V75.912H236.903C236.797 75.912 236.711 75.88 236.647 75.816C236.583 75.752 236.551 75.6667 236.551 75.56V75.048C236.551 74.9413 236.583 74.856 236.647 74.792C236.711 74.7173 236.797 74.68 236.903 74.68H238.167V72.008C238.167 71.9013 238.199 71.816 238.263 71.752C238.327 71.6773 238.413 71.64 238.519 71.64H239.223C239.33 71.64 239.415 71.6773 239.479 71.752C239.554 71.816 239.591 71.9013 239.591 72.008V74.68H241.575C241.682 74.68 241.767 74.7173 241.831 74.792C241.906 74.856 241.943 74.9413 241.943 75.048V75.56C241.943 75.6667 241.906 75.752 241.831 75.816C241.767 75.88 241.682 75.912 241.575 75.912H239.591V80.088C239.591 80.632 239.677 81.0427 239.847 81.32C240.029 81.5973 240.333 81.736 240.759 81.736H241.735C241.842 81.736 241.927 81.7733 241.991 81.848C242.055 81.912 242.087 81.9973 242.087 82.104V82.632C242.087 82.7387 242.055 82.8293 241.991 82.904C241.927 82.968 241.842 83 241.735 83H240.647ZM247.107 83.16C246.019 83.16 245.149 82.824 244.499 82.152C243.848 81.4693 243.491 80.5413 243.427 79.368L243.411 78.824L243.427 78.296C243.491 77.144 243.848 76.2267 244.499 75.544C245.149 74.8613 246.019 74.52 247.107 74.52C248.28 74.52 249.187 74.8933 249.827 75.64C250.477 76.3867 250.803 77.4 250.803 78.68V78.968C250.803 79.0747 250.765 79.1653 250.691 79.24C250.627 79.304 250.541 79.336 250.435 79.336H244.883V79.48C244.915 80.1733 245.128 80.7653 245.523 81.256C245.917 81.7467 246.44 81.992 247.091 81.992C247.592 81.992 247.997 81.896 248.307 81.704C248.627 81.5013 248.867 81.2933 249.027 81.08C249.123 80.952 249.197 80.8773 249.251 80.856C249.304 80.824 249.395 80.808 249.523 80.808H250.227C250.323 80.808 250.403 80.8347 250.467 80.888C250.541 80.9413 250.579 81.0107 250.579 81.096C250.579 81.3307 250.435 81.6133 250.147 81.944C249.859 82.2747 249.448 82.5627 248.915 82.808C248.392 83.0427 247.789 83.16 247.107 83.16ZM249.347 78.248V78.2C249.347 77.4533 249.144 76.8453 248.739 76.376C248.333 75.9067 247.789 75.672 247.107 75.672C246.413 75.672 245.869 75.9067 245.475 76.376C245.08 76.8453 244.883 77.4533 244.883 78.2V78.248H249.347ZM255.948 83.16C254.828 83.16 253.985 82.7973 253.42 82.072C252.865 81.3467 252.567 80.4293 252.524 79.32L252.508 78.84L252.524 78.36C252.567 77.2613 252.871 76.3493 253.436 75.624C254.001 74.888 254.839 74.52 255.948 74.52C257.057 74.52 257.921 74.9147 258.54 75.704V72.008C258.54 71.9013 258.572 71.816 258.636 71.752C258.711 71.6773 258.801 71.64 258.908 71.64H259.628C259.735 71.64 259.82 71.6773 259.884 71.752C259.959 71.816 259.996 71.9013 259.996 72.008V82.632C259.996 82.7387 259.959 82.8293 259.884 82.904C259.82 82.968 259.735 83 259.628 83H258.94C258.833 83 258.748 82.968 258.684 82.904C258.62 82.8293 258.588 82.7387 258.588 82.632V81.944C257.98 82.7547 257.1 83.16 255.948 83.16ZM256.252 81.912C256.999 81.912 257.559 81.6667 257.932 81.176C258.305 80.6747 258.508 80.0827 258.54 79.4C258.551 79.2827 258.556 79.08 258.556 78.792C258.556 78.4933 258.551 78.2853 258.54 78.168C258.519 77.5173 258.311 76.9573 257.916 76.488C257.532 76.008 256.977 75.768 256.252 75.768C255.484 75.768 254.924 76.008 254.572 76.488C254.22 76.968 254.028 77.5973 253.996 78.376L253.98 78.84C253.98 80.888 254.737 81.912 256.252 81.912Z" fill="#E0E0E0"/>
<path d="M115.08 44C114.813 44 114.573 43.9067 114.36 43.72C114.173 43.5067 114.08 43.2667 114.08 43V24.28L108.72 28.4C108.507 28.5333 108.307 28.6 108.12 28.6C107.8 28.6 107.52 28.44 107.28 28.12L104.8 24.92C104.693 24.7333 104.64 24.5333 104.64 24.32C104.64 23.9467 104.787 23.6533 105.08 23.44L114.36 16.28C114.627 16.0933 114.933 16 115.28 16H120.56C120.853 16 121.093 16.0933 121.28 16.28C121.493 16.4667 121.6 16.7067 121.6 17V43C121.6 43.2933 121.493 43.5333 121.28 43.72C121.093 43.9067 120.853 44 120.56 44H115.08ZM131.036 44C130.796 44 130.596 43.92 130.436 43.76C130.276 43.5733 130.196 43.36 130.196 43.12C130.196 42.9333 130.25 42.76 130.356 42.6L135.956 34.96C135.61 35.04 135.25 35.0667 134.876 35.04C133.25 34.9333 131.703 34.4933 130.236 33.72C128.77 32.92 127.57 31.8267 126.636 30.44C125.73 29.0267 125.276 27.4267 125.276 25.64C125.276 23.88 125.716 22.24 126.596 20.72C127.503 19.1733 128.823 17.9333 130.556 17C132.316 16.0667 134.423 15.6 136.876 15.6C139.356 15.6 141.49 16.0267 143.276 16.88C145.063 17.7333 146.41 18.9067 147.316 20.4C148.25 21.8667 148.716 23.52 148.716 25.36C148.716 26.8267 148.41 28.1733 147.796 29.4C147.21 30.6 146.316 32.0133 145.116 33.64L144.396 34.64L138.116 43.2C137.743 43.7333 137.263 44 136.676 44H131.036ZM136.956 29.6C138.13 29.6 139.09 29.24 139.836 28.52C140.61 27.8 140.996 26.8267 140.996 25.6C140.996 24.3733 140.61 23.4 139.836 22.68C139.063 21.96 138.103 21.6 136.956 21.6C135.783 21.6 134.81 21.96 134.036 22.68C133.29 23.4 132.916 24.3733 132.916 25.6C132.916 26.8267 133.29 27.8 134.036 28.52C134.783 29.24 135.756 29.6 136.956 29.6ZM162.936 44.44C160.509 44.44 158.416 44.0533 156.656 43.28C154.922 42.5067 153.602 41.48 152.696 40.2C151.816 38.92 151.349 37.52 151.296 36C151.296 35.76 151.376 35.56 151.536 35.4C151.696 35.24 151.896 35.16 152.136 35.16H157.776C158.416 35.16 158.856 35.4133 159.096 35.92C159.469 36.8 159.962 37.44 160.576 37.84C161.216 38.24 162.002 38.44 162.936 38.44C164.082 38.44 165.029 38.0933 165.776 37.4C166.549 36.7067 166.936 35.7333 166.936 34.48C166.936 33.3867 166.562 32.48 165.816 31.76C165.069 31.04 164.109 30.68 162.936 30.68C162.269 30.68 161.736 30.7733 161.336 30.96C160.936 31.12 160.549 31.3467 160.176 31.64C159.776 31.96 159.429 32.12 159.136 32.12H153.576C153.336 32.12 153.122 32.04 152.936 31.88C152.776 31.6933 152.696 31.48 152.696 31.24L154.176 17.2C154.202 16.8267 154.336 16.5333 154.576 16.32C154.842 16.1067 155.149 16 155.496 16H171.776C172.069 16 172.309 16.0933 172.496 16.28C172.682 16.4667 172.776 16.7067 172.776 17V21C172.776 21.2667 172.682 21.5067 172.496 21.72C172.309 21.9067 172.069 22 171.776 22H160.136L159.656 26.92C160.296 26.4667 161.016 26.1333 161.816 25.92C162.616 25.68 163.656 25.56 164.936 25.56C166.642 25.56 168.242 25.9467 169.736 26.72C171.229 27.4667 172.416 28.5333 173.296 29.92C174.202 31.3067 174.656 32.8933 174.656 34.68C174.656 36.5467 174.189 38.2267 173.256 39.72C172.322 41.1867 170.962 42.3467 169.176 43.2C167.416 44.0267 165.336 44.44 162.936 44.44Z" fill="white"/>
<circle opacity="0.1" cx="40" cy="40" r="40" fill="white"/>
<path d="M52.3743 27.6364C50.7522 25.9982 48.8224 24.6967 46.6958 23.8066C44.5692 22.9166 42.2877 22.4554 39.9823 22.4498C37.6769 22.4441 35.3931 22.894 33.2621 23.7736C31.1312 24.6532 29.195 25.9452 27.5648 27.5753C25.9347 29.2055 24.6427 31.1417 23.7631 33.2727C22.8835 35.4036 22.4336 37.6874 22.4393 39.9928C22.4449 42.2982 22.9061 44.5797 23.7962 46.7063C24.6862 48.8329 25.9877 50.7627 27.6259 52.3848C29.248 54.023 31.1778 55.3245 33.3044 56.2146C35.4311 57.1047 37.7126 57.5658 40.018 57.5715C42.3233 57.5772 44.6071 57.1273 46.7381 56.2477C48.8691 55.3681 50.8052 54.0761 52.4354 52.4459C54.0655 50.8158 55.3575 48.8796 56.2371 46.7486C57.1168 44.6176 57.5667 42.3338 57.561 40.0285C57.5553 37.7231 57.0942 35.4416 56.2041 33.3149C55.314 31.1883 54.0125 29.2585 52.3743 27.6364ZM25.0001 40.0106C24.9996 38.6831 25.1756 37.3613 25.5236 36.0802C26.097 37.3145 26.9298 38.3809 27.4962 39.6473C28.2282 41.2755 30.1939 40.8239 31.0618 42.2505C31.8322 43.5169 31.0095 45.1184 31.5861 46.4434C32.0048 47.4052 32.9923 47.6153 33.6736 48.3184C34.3697 49.0278 34.3548 49.9997 34.4611 50.9247C34.581 52.0115 34.7754 53.0888 35.0431 54.1489C35.0431 54.1567 35.0431 54.1653 35.0493 54.1731C29.2032 52.12 25.0001 46.5473 25.0001 40.0106ZM40.0001 55.0106C39.1624 55.0104 38.3262 54.9403 37.5001 54.8013C37.5087 54.5895 37.5126 54.3919 37.5337 54.2544C37.7236 53.0122 38.3454 51.7973 39.1845 50.8677C40.0134 49.9505 41.1493 49.3302 41.8493 48.2895C42.5353 47.2739 42.7407 45.9067 42.4579 44.72C42.0415 42.9669 39.6595 42.3817 38.3751 41.4309C37.6368 40.8841 36.9798 40.0387 36.0103 39.97C35.5634 39.9387 35.1892 40.0348 34.7462 39.9208C34.34 39.8153 34.0212 39.5966 33.5884 39.6536C32.7798 39.7598 32.2697 40.6239 31.4009 40.5067C30.5767 40.3966 29.7275 39.4317 29.54 38.6466C29.2993 37.6372 30.0978 37.3098 30.9532 37.22C31.3103 37.1825 31.7111 37.1419 32.054 37.2731C32.5056 37.4403 32.7189 37.8825 33.1243 38.1059C33.8845 38.5231 34.0384 37.8567 33.922 37.1817C33.7478 36.1708 33.5447 35.7591 34.4462 35.063C35.0712 34.5833 35.6056 34.2364 35.5056 33.3747C35.4462 32.8684 35.1689 32.6395 35.4275 32.1356C35.6236 31.752 36.1618 31.4059 36.5126 31.177C37.4181 30.5864 40.3915 30.6302 39.1767 28.977C38.8197 28.4919 38.1611 27.6247 37.5361 27.5059C36.7548 27.3583 36.4079 28.2302 35.8634 28.6145C35.3009 29.0122 34.2056 29.4637 33.6423 28.8489C32.8845 28.0216 34.1447 27.7505 34.4236 27.1723C34.5525 26.9028 34.4236 26.5286 34.2064 26.1762C34.4881 26.0575 34.7746 25.9473 35.0657 25.8458C35.2482 25.9805 35.4647 26.0617 35.6907 26.0802C36.2134 26.1145 36.7064 25.8317 37.1626 26.188C37.6689 26.5786 38.0337 27.0723 38.7056 27.1942C39.3556 27.3122 40.0439 26.9333 40.2048 26.2677C40.3025 25.863 40.2048 25.4356 40.1111 25.0177C43.0329 25.0345 45.8855 25.9095 48.3142 27.5341C48.1579 27.4747 47.9712 27.4817 47.7407 27.5887C47.2665 27.8091 46.5947 28.37 46.5392 28.9262C46.4759 29.5575 47.4071 29.6466 47.8493 29.6466C48.5134 29.6466 49.1861 29.3497 48.972 28.5825C48.879 28.2497 48.7525 27.9036 48.5486 27.6942C49.0387 28.0343 49.5083 28.4032 49.9548 28.7989C49.9478 28.8059 49.9407 28.8122 49.9337 28.82C49.4837 29.2887 48.9611 29.6598 48.6532 30.2302C48.4361 30.6317 48.1915 30.8223 47.7517 30.9262C47.5095 30.9833 47.2329 31.0044 47.0298 31.1669C46.4642 31.6122 46.7861 32.6825 47.322 33.0036C47.9993 33.4091 49.004 33.2184 49.515 32.6395C49.9142 32.1864 50.1493 31.3997 50.8673 31.4005C51.1834 31.3998 51.487 31.5236 51.7126 31.745C52.0095 32.0528 51.9509 32.3403 52.0142 32.7247C52.1259 33.4075 52.7282 33.0372 53.0946 32.6927C53.3617 33.168 53.6027 33.6575 53.8165 34.1591C53.4134 34.7395 53.0931 35.3723 52.1236 34.6958C51.5431 34.2903 51.1861 33.702 50.4571 33.5192C49.8204 33.363 49.1681 33.5255 48.5392 33.6341C47.8243 33.7583 46.9767 33.813 46.4345 34.3544C45.9103 34.8762 45.6329 35.5747 45.0751 36.0989C43.9962 37.1145 43.5407 38.2231 44.2392 39.6591C44.9111 41.0395 46.3165 41.7887 47.8329 41.6903C49.3228 41.5911 50.8704 40.727 50.8275 42.8919C50.8118 43.6583 50.972 44.1888 51.2071 44.9005C51.4251 45.5567 51.4103 46.1927 51.4603 46.87C51.5078 47.6632 51.6318 48.4499 51.8306 49.2192C50.4303 51.0222 48.6364 52.4812 46.586 53.485C44.5357 54.4887 42.283 55.0105 40.0001 55.0106Z" fill="#3671E9"/>
</svg>
