<svg width="334" height="92" viewBox="0 0 334 92" fill="none" xmlns="http://www.w3.org/2000/svg">
<path d="M105.76 83C105.653 83 105.568 82.968 105.504 82.904C105.44 82.8293 105.408 82.7387 105.408 82.632V72.184C105.408 72.0667 105.44 71.976 105.504 71.912C105.568 71.8373 105.653 71.8 105.76 71.8H109.376C110.987 71.8 112.149 72.1627 112.864 72.888C113.579 73.6027 113.947 74.6853 113.968 76.136C113.979 76.4453 113.984 76.8613 113.984 77.384C113.984 77.9067 113.979 78.328 113.968 78.648C113.947 79.6613 113.781 80.488 113.472 81.128C113.173 81.7573 112.699 82.2267 112.048 82.536C111.397 82.8453 110.533 83 109.456 83H105.76ZM109.376 81.672C110.123 81.672 110.715 81.5707 111.152 81.368C111.6 81.1547 111.92 80.8293 112.112 80.392C112.315 79.944 112.427 79.3413 112.448 78.584C112.469 77.944 112.48 77.544 112.48 77.384C112.48 77.2133 112.469 76.8187 112.448 76.2C112.427 75.1333 112.171 74.3547 111.68 73.864C111.2 73.3627 110.405 73.112 109.296 73.112H106.912V81.672H109.376ZM116.616 73.112C116.509 73.112 116.418 73.08 116.344 73.016C116.28 72.9413 116.248 72.8507 116.248 72.744V71.912C116.248 71.8053 116.28 71.7147 116.344 71.64C116.418 71.5653 116.509 71.528 116.616 71.528H117.56C117.666 71.528 117.757 71.5653 117.832 71.64C117.906 71.7147 117.944 71.8053 117.944 71.912V72.744C117.944 72.8507 117.906 72.9413 117.832 73.016C117.757 73.08 117.666 73.112 117.56 73.112H116.616ZM116.744 83C116.637 83 116.546 82.968 116.472 82.904C116.408 82.8293 116.376 82.7387 116.376 82.632V75.048C116.376 74.9413 116.408 74.856 116.472 74.792C116.546 74.7173 116.637 74.68 116.744 74.68H117.448C117.554 74.68 117.64 74.7173 117.704 74.792C117.778 74.856 117.816 74.9413 117.816 75.048V82.632C117.816 82.7387 117.778 82.8293 117.704 82.904C117.64 82.968 117.554 83 117.448 83H116.744ZM123.755 86.52C122.87 86.52 122.161 86.3707 121.627 86.072C121.094 85.7733 120.715 85.432 120.491 85.048C120.278 84.664 120.171 84.3333 120.171 84.056C120.171 83.96 120.209 83.8747 120.283 83.8C120.358 83.736 120.443 83.704 120.539 83.704H121.243C121.339 83.704 121.419 83.7253 121.483 83.768C121.547 83.8213 121.601 83.912 121.643 84.04C121.942 84.8933 122.619 85.32 123.675 85.32C124.475 85.32 125.067 85.1493 125.451 84.808C125.835 84.4667 126.027 83.864 126.027 83V81.896C125.409 82.6853 124.545 83.08 123.435 83.08C122.305 83.08 121.457 82.7173 120.891 81.992C120.337 81.2667 120.043 80.3493 120.011 79.24L119.995 78.792L120.011 78.36C120.043 77.2613 120.337 76.3493 120.891 75.624C121.457 74.888 122.305 74.52 123.435 74.52C124.555 74.52 125.43 74.9307 126.059 75.752V75.064C126.059 74.9573 126.091 74.8667 126.155 74.792C126.23 74.7173 126.321 74.68 126.427 74.68H127.115C127.222 74.68 127.307 74.7173 127.371 74.792C127.446 74.8667 127.483 74.9573 127.483 75.064V82.824C127.483 85.288 126.241 86.52 123.755 86.52ZM123.723 81.832C124.47 81.832 125.03 81.592 125.403 81.112C125.787 80.6213 125.995 80.0347 126.027 79.352C126.038 79.256 126.043 79.0693 126.043 78.792C126.043 78.5253 126.038 78.344 126.027 78.248C125.995 77.5653 125.787 76.984 125.403 76.504C125.03 76.0133 124.47 75.768 123.723 75.768C122.955 75.768 122.395 76.0133 122.043 76.504C121.702 76.984 121.515 77.608 121.483 78.376L121.467 78.792L121.483 79.224C121.515 79.992 121.702 80.6213 122.043 81.112C122.395 81.592 122.955 81.832 123.723 81.832ZM130.295 73.112C130.188 73.112 130.098 73.08 130.023 73.016C129.959 72.9413 129.927 72.8507 129.927 72.744V71.912C129.927 71.8053 129.959 71.7147 130.023 71.64C130.098 71.5653 130.188 71.528 130.295 71.528H131.239C131.346 71.528 131.436 71.5653 131.511 71.64C131.586 71.7147 131.623 71.8053 131.623 71.912V72.744C131.623 72.8507 131.586 72.9413 131.511 73.016C131.436 73.08 131.346 73.112 131.239 73.112H130.295ZM130.423 83C130.316 83 130.226 82.968 130.151 82.904C130.087 82.8293 130.055 82.7387 130.055 82.632V75.048C130.055 74.9413 130.087 74.856 130.151 74.792C130.226 74.7173 130.316 74.68 130.423 74.68H131.127C131.234 74.68 131.319 74.7173 131.383 74.792C131.458 74.856 131.495 74.9413 131.495 75.048V82.632C131.495 82.7387 131.458 82.8293 131.383 82.904C131.319 82.968 131.234 83 131.127 83H130.423ZM137.259 83C135.605 83 134.779 82.0667 134.779 80.2V75.912H133.515C133.408 75.912 133.323 75.88 133.259 75.816C133.195 75.752 133.163 75.6667 133.163 75.56V75.048C133.163 74.9413 133.195 74.856 133.259 74.792C133.323 74.7173 133.408 74.68 133.515 74.68H134.779V72.008C134.779 71.9013 134.811 71.816 134.875 71.752C134.939 71.6773 135.024 71.64 135.131 71.64H135.835C135.941 71.64 136.027 71.6773 136.091 71.752C136.165 71.816 136.203 71.9013 136.203 72.008V74.68H138.187C138.293 74.68 138.379 74.7173 138.443 74.792C138.517 74.856 138.555 74.9413 138.555 75.048V75.56C138.555 75.6667 138.517 75.752 138.443 75.816C138.379 75.88 138.293 75.912 138.187 75.912H136.203V80.088C136.203 80.632 136.288 81.0427 136.459 81.32C136.64 81.5973 136.944 81.736 137.371 81.736H138.347C138.453 81.736 138.539 81.7733 138.603 81.848C138.667 81.912 138.699 81.9973 138.699 82.104V82.632C138.699 82.7387 138.667 82.8293 138.603 82.904C138.539 82.968 138.453 83 138.347 83H137.259ZM142.726 83.16C142.203 83.16 141.718 83.0533 141.27 82.84C140.833 82.6267 140.481 82.3387 140.214 81.976C139.958 81.6027 139.83 81.192 139.83 80.744C139.83 80.04 140.118 79.464 140.694 79.016C141.27 78.568 142.054 78.2693 143.046 78.12L145.446 77.784V77.32C145.446 76.2213 144.811 75.672 143.542 75.672C143.051 75.672 142.657 75.7733 142.358 75.976C142.059 76.168 141.841 76.3973 141.702 76.664C141.659 76.7707 141.611 76.8453 141.558 76.888C141.515 76.92 141.451 76.936 141.366 76.936H140.742C140.646 76.936 140.561 76.904 140.486 76.84C140.422 76.7653 140.39 76.68 140.39 76.584C140.39 76.3387 140.502 76.056 140.726 75.736C140.961 75.4053 141.318 75.1227 141.798 74.888C142.278 74.6427 142.865 74.52 143.558 74.52C144.753 74.52 145.606 74.7973 146.118 75.352C146.641 75.9067 146.902 76.6 146.902 77.432V82.632C146.902 82.7387 146.865 82.8293 146.79 82.904C146.726 82.968 146.641 83 146.534 83H145.83C145.723 83 145.638 82.968 145.574 82.904C145.51 82.8293 145.478 82.7387 145.478 82.632V81.928C145.243 82.28 144.902 82.5733 144.454 82.808C144.006 83.0427 143.43 83.16 142.726 83.16ZM143.046 81.992C143.75 81.992 144.326 81.7627 144.774 81.304C145.222 80.8453 145.446 80.1787 145.446 79.304V78.856L143.574 79.128C142.806 79.2347 142.225 79.416 141.83 79.672C141.435 79.928 141.238 80.248 141.238 80.632C141.238 81.0693 141.414 81.4053 141.766 81.64C142.129 81.8747 142.555 81.992 143.046 81.992ZM149.763 83C149.656 83 149.565 82.968 149.491 82.904C149.427 82.8293 149.395 82.7387 149.395 82.632V72.008C149.395 71.8907 149.427 71.8 149.491 71.736C149.565 71.672 149.656 71.64 149.763 71.64H150.467C150.573 71.64 150.659 71.6773 150.723 71.752C150.797 71.816 150.835 71.9013 150.835 72.008V82.632C150.835 82.7387 150.797 82.8293 150.723 82.904C150.659 82.968 150.573 83 150.467 83H149.763ZM161.704 83.16C160.285 83.16 159.202 82.776 158.456 82.008C157.72 81.2293 157.325 80.168 157.272 78.824C157.261 78.536 157.256 78.0667 157.256 77.416C157.256 76.7547 157.261 76.2747 157.272 75.976C157.325 74.632 157.72 73.576 158.456 72.808C159.202 72.0293 160.285 71.64 161.704 71.64C162.653 71.64 163.458 71.8107 164.12 72.152C164.781 72.4827 165.277 72.92 165.608 73.464C165.949 74.008 166.136 74.5893 166.168 75.208C166.168 75.304 166.13 75.384 166.056 75.448C165.992 75.5013 165.912 75.528 165.816 75.528H165.016C164.909 75.528 164.824 75.5013 164.76 75.448C164.696 75.3947 164.648 75.304 164.616 75.176C164.434 74.3547 164.104 73.7787 163.624 73.448C163.154 73.1173 162.514 72.952 161.704 72.952C159.848 72.952 158.882 73.9867 158.808 76.056C158.797 76.344 158.792 76.7867 158.792 77.384C158.792 77.9813 158.797 78.4347 158.808 78.744C158.882 80.8027 159.848 81.832 161.704 81.832C162.504 81.832 163.144 81.6667 163.624 81.336C164.104 81.0053 164.434 80.4347 164.616 79.624C164.648 79.496 164.696 79.4053 164.76 79.352C164.824 79.2987 164.909 79.272 165.016 79.272H165.816C165.912 79.272 165.992 79.304 166.056 79.368C166.13 79.4213 166.168 79.496 166.168 79.592C166.136 80.2107 165.949 80.792 165.608 81.336C165.277 81.88 164.781 82.3227 164.12 82.664C163.458 82.9947 162.653 83.16 161.704 83.16ZM171.4 83.16C170.387 83.16 169.603 82.8347 169.048 82.184C168.494 81.5227 168.216 80.648 168.216 79.56V75.048C168.216 74.9413 168.248 74.856 168.312 74.792C168.387 74.7173 168.478 74.68 168.584 74.68H169.32C169.427 74.68 169.512 74.7173 169.576 74.792C169.651 74.856 169.688 74.9413 169.688 75.048V79.48C169.688 81.1013 170.392 81.912 171.8 81.912C172.483 81.912 173.022 81.6987 173.416 81.272C173.822 80.8347 174.024 80.2373 174.024 79.48V75.048C174.024 74.9413 174.056 74.856 174.12 74.792C174.195 74.7173 174.286 74.68 174.392 74.68H175.128C175.235 74.68 175.32 74.7173 175.384 74.792C175.459 74.856 175.496 74.9413 175.496 75.048V82.632C175.496 82.7387 175.459 82.8293 175.384 82.904C175.32 82.968 175.235 83 175.128 83H174.44C174.334 83 174.243 82.968 174.168 82.904C174.104 82.8293 174.072 82.7387 174.072 82.632V81.912C173.763 82.328 173.4 82.6427 172.984 82.856C172.568 83.0587 172.04 83.16 171.4 83.16ZM178.418 83C178.311 83 178.221 82.968 178.146 82.904C178.082 82.8293 178.05 82.7387 178.05 82.632V75.064C178.05 74.9573 178.082 74.8667 178.146 74.792C178.221 74.7173 178.311 74.68 178.418 74.68H179.09C179.207 74.68 179.298 74.7173 179.362 74.792C179.437 74.856 179.474 74.9467 179.474 75.064V75.768C179.911 75.0427 180.653 74.68 181.698 74.68H182.322C182.439 74.68 182.53 74.712 182.594 74.776C182.658 74.84 182.69 74.9307 182.69 75.048V75.64C182.69 75.7467 182.658 75.8373 182.594 75.912C182.53 75.976 182.439 76.008 182.322 76.008H181.41C180.823 76.008 180.359 76.1787 180.018 76.52C179.687 76.8613 179.522 77.3253 179.522 77.912V82.632C179.522 82.7387 179.485 82.8293 179.41 82.904C179.335 82.968 179.245 83 179.138 83H178.418ZM184.594 83C184.487 83 184.396 82.968 184.322 82.904C184.258 82.8293 184.226 82.7387 184.226 82.632V75.064C184.226 74.9573 184.258 74.8667 184.322 74.792C184.396 74.7173 184.487 74.68 184.594 74.68H185.266C185.383 74.68 185.474 74.7173 185.538 74.792C185.612 74.856 185.65 74.9467 185.65 75.064V75.768C186.087 75.0427 186.828 74.68 187.874 74.68H188.498C188.615 74.68 188.706 74.712 188.77 74.776C188.834 74.84 188.866 74.9307 188.866 75.048V75.64C188.866 75.7467 188.834 75.8373 188.77 75.912C188.706 75.976 188.615 76.008 188.498 76.008H187.586C186.999 76.008 186.535 76.1787 186.194 76.52C185.863 76.8613 185.698 77.3253 185.698 77.912V82.632C185.698 82.7387 185.66 82.8293 185.586 82.904C185.511 82.968 185.42 83 185.314 83H184.594ZM193.541 83.16C192.453 83.16 191.584 82.824 190.933 82.152C190.282 81.4693 189.925 80.5413 189.861 79.368L189.845 78.824L189.861 78.296C189.925 77.144 190.282 76.2267 190.933 75.544C191.584 74.8613 192.453 74.52 193.541 74.52C194.714 74.52 195.621 74.8933 196.261 75.64C196.912 76.3867 197.237 77.4 197.237 78.68V78.968C197.237 79.0747 197.2 79.1653 197.125 79.24C197.061 79.304 196.976 79.336 196.869 79.336H191.317V79.48C191.349 80.1733 191.562 80.7653 191.957 81.256C192.352 81.7467 192.874 81.992 193.525 81.992C194.026 81.992 194.432 81.896 194.741 81.704C195.061 81.5013 195.301 81.2933 195.461 81.08C195.557 80.952 195.632 80.8773 195.685 80.856C195.738 80.824 195.829 80.808 195.957 80.808H196.661C196.757 80.808 196.837 80.8347 196.901 80.888C196.976 80.9413 197.013 81.0107 197.013 81.096C197.013 81.3307 196.869 81.6133 196.581 81.944C196.293 82.2747 195.882 82.5627 195.349 82.808C194.826 83.0427 194.224 83.16 193.541 83.16ZM195.781 78.248V78.2C195.781 77.4533 195.578 76.8453 195.173 76.376C194.768 75.9067 194.224 75.672 193.541 75.672C192.848 75.672 192.304 75.9067 191.909 76.376C191.514 76.8453 191.317 77.4533 191.317 78.2V78.248H195.781ZM199.711 83C199.604 83 199.513 82.968 199.439 82.904C199.375 82.8293 199.343 82.7387 199.343 82.632V75.048C199.343 74.9413 199.375 74.856 199.439 74.792C199.513 74.7173 199.604 74.68 199.711 74.68H200.399C200.516 74.68 200.607 74.712 200.671 74.776C200.735 74.84 200.767 74.9307 200.767 75.048V75.752C201.087 75.3573 201.455 75.0533 201.871 74.84C202.297 74.6267 202.825 74.52 203.455 74.52C204.479 74.52 205.273 74.8507 205.839 75.512C206.404 76.1627 206.687 77.0267 206.687 78.104V82.632C206.687 82.7387 206.649 82.8293 206.575 82.904C206.511 82.968 206.425 83 206.319 83H205.583C205.476 83 205.385 82.968 205.311 82.904C205.247 82.8293 205.215 82.7387 205.215 82.632V78.2C205.215 77.432 205.028 76.8347 204.655 76.408C204.281 75.9813 203.748 75.768 203.055 75.768C202.372 75.768 201.828 75.9867 201.423 76.424C201.017 76.8507 200.815 77.4427 200.815 78.2V82.632C200.815 82.7387 200.777 82.8293 200.703 82.904C200.639 82.968 200.553 83 200.447 83H199.711ZM212.487 83.16C211.345 83.16 210.455 82.84 209.815 82.2C209.175 81.5493 208.839 80.6427 208.807 79.48L208.791 78.84L208.807 78.2C208.839 77.0373 209.175 76.136 209.815 75.496C210.455 74.8453 211.345 74.52 212.487 74.52C213.255 74.52 213.9 74.6587 214.423 74.936C214.956 75.2027 215.351 75.5387 215.607 75.944C215.873 76.3493 216.017 76.7547 216.039 77.16C216.049 77.256 216.012 77.3413 215.927 77.416C215.852 77.4907 215.767 77.528 215.671 77.528H214.967C214.86 77.528 214.78 77.5067 214.727 77.464C214.673 77.4107 214.62 77.32 214.567 77.192C214.375 76.6693 214.108 76.3013 213.767 76.088C213.436 75.864 213.015 75.752 212.503 75.752C211.831 75.752 211.297 75.96 210.903 76.376C210.508 76.792 210.295 77.4267 210.263 78.28L210.247 78.84L210.263 79.4C210.295 80.2533 210.508 80.888 210.903 81.304C211.297 81.72 211.831 81.928 212.503 81.928C213.025 81.928 213.452 81.8213 213.783 81.608C214.113 81.384 214.375 81.0107 214.567 80.488C214.62 80.36 214.673 80.2747 214.727 80.232C214.78 80.1787 214.86 80.152 214.967 80.152H215.671C215.767 80.152 215.852 80.1893 215.927 80.264C216.012 80.3387 216.049 80.424 216.039 80.52C216.017 80.9147 215.873 81.3147 215.607 81.72C215.351 82.1253 214.956 82.4667 214.423 82.744C213.9 83.0213 213.255 83.16 212.487 83.16ZM219.337 86.04C219.241 86.04 219.161 86.008 219.097 85.944C219.033 85.88 219.001 85.8053 219.001 85.72C219.001 85.688 219.028 85.592 219.081 85.432L220.329 82.504L217.273 75.288C217.209 75.16 217.177 75.0693 217.177 75.016C217.188 74.92 217.225 74.84 217.289 74.776C217.353 74.712 217.428 74.68 217.513 74.68H218.249C218.42 74.68 218.548 74.7653 218.633 74.936L221.097 80.824L223.625 74.936C223.711 74.7653 223.839 74.68 224.009 74.68H224.729C224.815 74.68 224.889 74.712 224.953 74.776C225.017 74.84 225.049 74.9147 225.049 75C225.049 75.0747 225.023 75.1707 224.969 75.288L220.441 85.784C220.388 85.8693 220.329 85.9333 220.265 85.976C220.212 86.0187 220.137 86.04 220.041 86.04H219.337ZM231.043 83C230.936 83 230.851 82.968 230.787 82.904C230.723 82.8293 230.691 82.7387 230.691 82.632V72.184C230.691 72.0667 230.723 71.976 230.787 71.912C230.851 71.8373 230.936 71.8 231.043 71.8H237.619C237.736 71.8 237.827 71.8373 237.891 71.912C237.965 71.976 238.003 72.0667 238.003 72.184V72.76C238.003 72.8667 237.965 72.952 237.891 73.016C237.827 73.08 237.736 73.112 237.619 73.112H232.163V76.68H237.267C237.384 76.68 237.475 76.7173 237.539 76.792C237.613 76.856 237.651 76.9467 237.651 77.064V77.608C237.651 77.7147 237.613 77.8053 237.539 77.88C237.475 77.944 237.384 77.976 237.267 77.976H232.163V81.672H237.747C237.864 81.672 237.955 81.7093 238.019 81.784C238.093 81.848 238.131 81.9387 238.131 82.056V82.632C238.131 82.7387 238.093 82.8293 238.019 82.904C237.944 82.968 237.853 83 237.747 83H231.043ZM239.946 83C239.85 83 239.77 82.968 239.706 82.904C239.642 82.84 239.61 82.76 239.61 82.664C239.61 82.568 239.647 82.4667 239.722 82.36L242.506 78.744L239.898 75.304C239.813 75.1867 239.77 75.0907 239.77 75.016C239.77 74.92 239.802 74.84 239.866 74.776C239.941 74.712 240.021 74.68 240.106 74.68H240.874C241.034 74.68 241.173 74.7653 241.29 74.936L243.45 77.736L245.61 74.936C245.674 74.8507 245.733 74.7867 245.786 74.744C245.85 74.7013 245.93 74.68 246.026 74.68H246.762C246.847 74.68 246.922 74.712 246.986 74.776C247.05 74.84 247.082 74.9147 247.082 75C247.082 75.1067 247.045 75.208 246.97 75.304L244.33 78.776L247.114 82.36C247.189 82.4667 247.226 82.568 247.226 82.664C247.226 82.76 247.194 82.84 247.13 82.904C247.066 82.968 246.986 83 246.89 83H246.106C245.946 83 245.807 82.92 245.69 82.76L243.402 79.8L241.114 82.76C241.05 82.8347 240.986 82.8933 240.922 82.936C240.869 82.9787 240.794 83 240.698 83H239.946ZM252.193 83.16C251.052 83.16 250.161 82.84 249.521 82.2C248.881 81.5493 248.545 80.6427 248.513 79.48L248.497 78.84L248.513 78.2C248.545 77.0373 248.881 76.136 249.521 75.496C250.161 74.8453 251.052 74.52 252.193 74.52C252.961 74.52 253.606 74.6587 254.129 74.936C254.662 75.2027 255.057 75.5387 255.313 75.944C255.58 76.3493 255.724 76.7547 255.745 77.16C255.756 77.256 255.718 77.3413 255.633 77.416C255.558 77.4907 255.473 77.528 255.377 77.528H254.673C254.566 77.528 254.486 77.5067 254.433 77.464C254.38 77.4107 254.326 77.32 254.273 77.192C254.081 76.6693 253.814 76.3013 253.473 76.088C253.142 75.864 252.721 75.752 252.209 75.752C251.537 75.752 251.004 75.96 250.609 76.376C250.214 76.792 250.001 77.4267 249.969 78.28L249.953 78.84L249.969 79.4C250.001 80.2533 250.214 80.888 250.609 81.304C251.004 81.72 251.537 81.928 252.209 81.928C252.732 81.928 253.158 81.8213 253.489 81.608C253.82 81.384 254.081 81.0107 254.273 80.488C254.326 80.36 254.38 80.2747 254.433 80.232C254.486 80.1787 254.566 80.152 254.673 80.152H255.377C255.473 80.152 255.558 80.1893 255.633 80.264C255.718 80.3387 255.756 80.424 255.745 80.52C255.724 80.9147 255.58 81.3147 255.313 81.72C255.057 82.1253 254.662 82.4667 254.129 82.744C253.606 83.0213 252.961 83.16 252.193 83.16ZM258.206 83C258.099 83 258.009 82.968 257.934 82.904C257.87 82.8293 257.838 82.7387 257.838 82.632V72.008C257.838 71.8907 257.87 71.8 257.934 71.736C258.009 71.672 258.099 71.64 258.206 71.64H258.942C259.059 71.64 259.15 71.672 259.214 71.736C259.278 71.8 259.31 71.8907 259.31 72.008V75.736C259.619 75.3413 259.982 75.0427 260.398 74.84C260.825 74.6267 261.347 74.52 261.966 74.52C262.99 74.52 263.785 74.8507 264.35 75.512C264.926 76.1627 265.214 77.0267 265.214 78.104V82.632C265.214 82.7387 265.177 82.8293 265.102 82.904C265.038 82.968 264.953 83 264.846 83H264.094C263.987 83 263.897 82.968 263.822 82.904C263.758 82.8293 263.726 82.7387 263.726 82.632V78.2C263.726 77.432 263.539 76.8347 263.166 76.408C262.793 75.9813 262.254 75.768 261.55 75.768C260.867 75.768 260.323 75.9867 259.918 76.424C259.513 76.8507 259.31 77.4427 259.31 78.2V82.632C259.31 82.7387 259.273 82.8293 259.198 82.904C259.134 82.968 259.049 83 258.942 83H258.206ZM270.005 83.16C269.482 83.16 268.997 83.0533 268.549 82.84C268.111 82.6267 267.759 82.3387 267.493 81.976C267.237 81.6027 267.109 81.192 267.109 80.744C267.109 80.04 267.397 79.464 267.973 79.016C268.549 78.568 269.333 78.2693 270.325 78.12L272.725 77.784V77.32C272.725 76.2213 272.09 75.672 270.821 75.672C270.33 75.672 269.935 75.7733 269.637 75.976C269.338 76.168 269.119 76.3973 268.981 76.664C268.938 76.7707 268.89 76.8453 268.837 76.888C268.794 76.92 268.73 76.936 268.645 76.936H268.021C267.925 76.936 267.839 76.904 267.765 76.84C267.701 76.7653 267.669 76.68 267.669 76.584C267.669 76.3387 267.781 76.056 268.005 75.736C268.239 75.4053 268.597 75.1227 269.077 74.888C269.557 74.6427 270.143 74.52 270.837 74.52C272.031 74.52 272.885 74.7973 273.397 75.352C273.919 75.9067 274.181 76.6 274.181 77.432V82.632C274.181 82.7387 274.143 82.8293 274.069 82.904C274.005 82.968 273.919 83 273.813 83H273.109C273.002 83 272.917 82.968 272.853 82.904C272.789 82.8293 272.757 82.7387 272.757 82.632V81.928C272.522 82.28 272.181 82.5733 271.733 82.808C271.285 83.0427 270.709 83.16 270.005 83.16ZM270.325 81.992C271.029 81.992 271.605 81.7627 272.053 81.304C272.501 80.8453 272.725 80.1787 272.725 79.304V78.856L270.853 79.128C270.085 79.2347 269.503 79.416 269.109 79.672C268.714 79.928 268.517 80.248 268.517 80.632C268.517 81.0693 268.693 81.4053 269.045 81.64C269.407 81.8747 269.834 81.992 270.325 81.992ZM277.026 83C276.919 83 276.828 82.968 276.754 82.904C276.69 82.8293 276.658 82.7387 276.658 82.632V75.048C276.658 74.9413 276.69 74.856 276.754 74.792C276.828 74.7173 276.919 74.68 277.026 74.68H277.714C277.831 74.68 277.922 74.712 277.986 74.776C278.05 74.84 278.082 74.9307 278.082 75.048V75.752C278.402 75.3573 278.77 75.0533 279.186 74.84C279.612 74.6267 280.14 74.52 280.77 74.52C281.794 74.52 282.588 74.8507 283.154 75.512C283.719 76.1627 284.002 77.0267 284.002 78.104V82.632C284.002 82.7387 283.964 82.8293 283.89 82.904C283.826 82.968 283.74 83 283.634 83H282.898C282.791 83 282.7 82.968 282.626 82.904C282.562 82.8293 282.53 82.7387 282.53 82.632V78.2C282.53 77.432 282.343 76.8347 281.97 76.408C281.596 75.9813 281.063 75.768 280.37 75.768C279.687 75.768 279.143 75.9867 278.738 76.424C278.332 76.8507 278.13 77.4427 278.13 78.2V82.632C278.13 82.7387 278.092 82.8293 278.018 82.904C277.954 82.968 277.868 83 277.762 83H277.026ZM289.85 86.52C288.964 86.52 288.255 86.3707 287.722 86.072C287.188 85.7733 286.81 85.432 286.586 85.048C286.372 84.664 286.266 84.3333 286.266 84.056C286.266 83.96 286.303 83.8747 286.378 83.8C286.452 83.736 286.538 83.704 286.634 83.704H287.338C287.434 83.704 287.514 83.7253 287.578 83.768C287.642 83.8213 287.695 83.912 287.738 84.04C288.036 84.8933 288.714 85.32 289.77 85.32C290.57 85.32 291.162 85.1493 291.546 84.808C291.93 84.4667 292.122 83.864 292.122 83V81.896C291.503 82.6853 290.639 83.08 289.53 83.08C288.399 83.08 287.551 82.7173 286.986 81.992C286.431 81.2667 286.138 80.3493 286.106 79.24L286.09 78.792L286.106 78.36C286.138 77.2613 286.431 76.3493 286.986 75.624C287.551 74.888 288.399 74.52 289.53 74.52C290.65 74.52 291.524 74.9307 292.154 75.752V75.064C292.154 74.9573 292.186 74.8667 292.25 74.792C292.324 74.7173 292.415 74.68 292.522 74.68H293.21C293.316 74.68 293.402 74.7173 293.466 74.792C293.54 74.8667 293.578 74.9573 293.578 75.064V82.824C293.578 85.288 292.335 86.52 289.85 86.52ZM289.818 81.832C290.564 81.832 291.124 81.592 291.498 81.112C291.882 80.6213 292.09 80.0347 292.122 79.352C292.132 79.256 292.138 79.0693 292.138 78.792C292.138 78.5253 292.132 78.344 292.122 78.248C292.09 77.5653 291.882 76.984 291.498 76.504C291.124 76.0133 290.564 75.768 289.818 75.768C289.05 75.768 288.49 76.0133 288.138 76.504C287.796 76.984 287.61 77.608 287.578 78.376L287.562 78.792L287.578 79.224C287.61 79.992 287.796 80.6213 288.138 81.112C288.49 81.592 289.05 81.832 289.818 81.832ZM299.445 83.16C298.357 83.16 297.488 82.824 296.837 82.152C296.187 81.4693 295.829 80.5413 295.765 79.368L295.749 78.824L295.765 78.296C295.829 77.144 296.187 76.2267 296.837 75.544C297.488 74.8613 298.357 74.52 299.445 74.52C300.619 74.52 301.525 74.8933 302.165 75.64C302.816 76.3867 303.141 77.4 303.141 78.68V78.968C303.141 79.0747 303.104 79.1653 303.029 79.24C302.965 79.304 302.88 79.336 302.773 79.336H297.221V79.48C297.253 80.1733 297.467 80.7653 297.861 81.256C298.256 81.7467 298.779 81.992 299.429 81.992C299.931 81.992 300.336 81.896 300.645 81.704C300.965 81.5013 301.205 81.2933 301.365 81.08C301.461 80.952 301.536 80.8773 301.589 80.856C301.643 80.824 301.733 80.808 301.861 80.808H302.565C302.661 80.808 302.741 80.8347 302.805 80.888C302.88 80.9413 302.917 81.0107 302.917 81.096C302.917 81.3307 302.773 81.6133 302.485 81.944C302.197 82.2747 301.787 82.5627 301.253 82.808C300.731 83.0427 300.128 83.16 299.445 83.16ZM301.685 78.248V78.2C301.685 77.4533 301.483 76.8453 301.077 76.376C300.672 75.9067 300.128 75.672 299.445 75.672C298.752 75.672 298.208 75.9067 297.813 76.376C297.419 76.8453 297.221 77.4533 297.221 78.2V78.248H301.685ZM308.287 83.16C307.167 83.16 306.324 82.7973 305.759 82.072C305.204 81.3467 304.906 80.4293 304.863 79.32L304.847 78.84L304.863 78.36C304.906 77.2613 305.21 76.3493 305.775 75.624C306.34 74.888 307.178 74.52 308.287 74.52C309.396 74.52 310.26 74.9147 310.879 75.704V72.008C310.879 71.9013 310.911 71.816 310.975 71.752C311.05 71.6773 311.14 71.64 311.247 71.64H311.967C312.074 71.64 312.159 71.6773 312.223 71.752C312.298 71.816 312.335 71.9013 312.335 72.008V82.632C312.335 82.7387 312.298 82.8293 312.223 82.904C312.159 82.968 312.074 83 311.967 83H311.279C311.172 83 311.087 82.968 311.023 82.904C310.959 82.8293 310.927 82.7387 310.927 82.632V81.944C310.319 82.7547 309.439 83.16 308.287 83.16ZM308.591 81.912C309.338 81.912 309.898 81.6667 310.271 81.176C310.644 80.6747 310.847 80.0827 310.879 79.4C310.89 79.2827 310.895 79.08 310.895 78.792C310.895 78.4933 310.89 78.2853 310.879 78.168C310.858 77.5173 310.65 76.9573 310.255 76.488C309.871 76.008 309.316 75.768 308.591 75.768C307.823 75.768 307.263 76.008 306.911 76.488C306.559 76.968 306.367 77.5973 306.335 78.376L306.319 78.84C306.319 80.888 307.076 81.912 308.591 81.912Z" fill="#E0E0E0"/>
<path d="M115.64 48C115.373 48 115.133 47.9067 114.92 47.72C114.733 47.5333 114.64 47.2933 114.64 47V44.2C112.64 43.96 110.933 43.4667 109.52 42.72C108.133 41.9467 107.08 41 106.36 39.88C105.667 38.76 105.293 37.5733 105.24 36.32C105.24 36.08 105.32 35.88 105.48 35.72C105.667 35.56 105.88 35.48 106.12 35.48H111.44C111.787 35.48 112.053 35.5333 112.24 35.64C112.427 35.7467 112.64 35.9333 112.88 36.2C113.707 37.6667 115.227 38.4 117.44 38.4C118.88 38.4 119.987 38.1867 120.76 37.76C121.56 37.3067 121.96 36.6933 121.96 35.92C121.96 35.36 121.747 34.9067 121.32 34.56C120.92 34.1867 120.28 33.8667 119.4 33.6C118.547 33.3067 117.28 32.9867 115.6 32.64C112.373 32 109.96 31.0267 108.36 29.72C106.76 28.4133 105.96 26.5467 105.96 24.12C105.96 21.96 106.733 20.1333 108.28 18.64C109.827 17.12 111.947 16.1733 114.64 15.8V13C114.64 12.7067 114.733 12.4667 114.92 12.28C115.133 12.0933 115.373 12 115.64 12H119.12C119.413 12 119.653 12.0933 119.84 12.28C120.027 12.4667 120.12 12.7067 120.12 13V15.88C121.88 16.2 123.4 16.7733 124.68 17.6C125.96 18.4 126.933 19.3333 127.6 20.4C128.293 21.44 128.667 22.4533 128.72 23.44C128.72 23.68 128.64 23.8933 128.48 24.08C128.32 24.24 128.12 24.32 127.88 24.32H122.28C121.667 24.32 121.213 24.08 120.92 23.6C120.76 23.04 120.333 22.5733 119.64 22.2C118.973 21.8 118.16 21.6 117.2 21.6C116.08 21.6 115.213 21.8 114.6 22.2C113.987 22.6 113.68 23.1867 113.68 23.96C113.68 24.7333 114.08 25.3467 114.88 25.8C115.68 26.2267 117.16 26.6667 119.32 27.12C121.827 27.5733 123.827 28.1467 125.32 28.84C126.813 29.5067 127.907 30.3867 128.6 31.48C129.293 32.5467 129.64 33.9067 129.64 35.56C129.64 37.9067 128.773 39.84 127.04 41.36C125.333 42.88 123.027 43.8267 120.12 44.2V47C120.12 47.2933 120.027 47.5333 119.84 47.72C119.653 47.9067 119.413 48 119.12 48H115.64ZM143.994 44.4C141.381 44.4 139.181 44 137.394 43.2C135.634 42.3733 134.327 41.36 133.474 40.16C132.647 38.96 132.207 37.76 132.154 36.56C132.154 36.32 132.234 36.12 132.394 35.96C132.581 35.8 132.794 35.72 133.034 35.72H138.554C138.874 35.72 139.127 35.7867 139.314 35.92C139.501 36.0267 139.674 36.2133 139.834 36.48C140.341 37.7867 141.741 38.44 144.034 38.44C145.341 38.44 146.354 38.1333 147.074 37.52C147.794 36.9067 148.154 36.08 148.154 35.04C148.154 33.04 146.821 32.04 144.154 32.04H139.674C139.381 32.04 139.127 31.9467 138.914 31.76C138.727 31.5467 138.634 31.2933 138.634 31V28.64C138.634 28.0267 138.861 27.5733 139.314 27.28L145.754 22H134.714C134.447 22 134.207 21.9067 133.994 21.72C133.807 21.5067 133.714 21.2667 133.714 21V17.04C133.714 16.7467 133.807 16.5067 133.994 16.32C134.181 16.1067 134.421 16 134.714 16H153.354C153.647 16 153.887 16.1067 154.074 16.32C154.261 16.5067 154.354 16.7467 154.354 17.04V20.6C154.354 21.16 154.141 21.6 153.714 21.92L147.794 27.32L148.074 27.4C150.474 27.7467 152.381 28.5733 153.794 29.88C155.207 31.1867 155.914 33.0667 155.914 35.52C155.914 37.3067 155.394 38.88 154.354 40.24C153.341 41.5733 151.927 42.6 150.114 43.32C148.327 44.04 146.287 44.4 143.994 44.4ZM171.156 44.4C167.476 44.3733 164.676 43.4 162.756 41.48C160.836 39.56 159.782 37.0267 159.596 33.88C159.542 32.44 159.516 31.1467 159.516 30C159.516 28.8267 159.542 27.4933 159.596 26C159.702 24 160.196 22.2267 161.076 20.68C161.982 19.1067 163.276 17.8667 164.956 16.96C166.662 16.0533 168.729 15.6 171.156 15.6C173.582 15.6 175.649 16.0533 177.356 16.96C179.062 17.8667 180.356 19.1067 181.236 20.68C182.142 22.2267 182.649 24 182.756 26C182.809 26.7467 182.836 28.08 182.836 30C182.836 31.8667 182.809 33.16 182.756 33.88C182.569 37.0267 181.516 39.56 179.596 41.48C177.676 43.4 174.862 44.3733 171.156 44.4ZM171.156 38.36C172.409 38.36 173.342 37.96 173.956 37.16C174.569 36.3333 174.902 35.1733 174.956 33.68C175.009 32.9067 175.036 31.6533 175.036 29.92C175.036 28.1867 175.009 26.96 174.956 26.24C174.902 24.8 174.569 23.6667 173.956 22.84C173.342 21.9867 172.409 21.56 171.156 21.56C168.756 21.56 167.489 23.12 167.356 26.24C167.329 26.96 167.316 28.1867 167.316 29.92C167.316 31.6533 167.329 32.9067 167.356 33.68C167.489 36.8 168.756 38.36 171.156 38.36ZM188.579 44C188.313 44 188.073 43.9067 187.859 43.72C187.673 43.5067 187.579 43.2667 187.579 43V17.04C187.579 16.7467 187.673 16.5067 187.859 16.32C188.046 16.1067 188.286 16 188.579 16H200.939C204.326 16 206.846 16.6933 208.499 18.08C210.153 19.4667 210.979 21.44 210.979 24C210.979 25.28 210.633 26.3867 209.939 27.32C209.273 28.2533 208.526 28.9333 207.699 29.36C208.793 29.84 209.713 30.64 210.459 31.76C211.206 32.8533 211.579 34.0933 211.579 35.48C211.579 38.1733 210.686 40.2667 208.899 41.76C207.139 43.2533 204.606 44 201.299 44H188.579ZM200.099 27.08C201.086 27.08 201.846 26.8133 202.379 26.28C202.913 25.7467 203.179 25.0533 203.179 24.2C203.179 23.3733 202.913 22.7067 202.379 22.2C201.873 21.6667 201.113 21.4 200.099 21.4H195.099V27.08H200.099ZM200.459 38.6C201.499 38.6 202.299 38.3067 202.859 37.72C203.446 37.1067 203.739 36.36 203.739 35.48C203.739 34.5733 203.446 33.8267 202.859 33.24C202.273 32.6267 201.473 32.32 200.459 32.32H195.099V38.6H200.459Z" fill="white"/>
<circle cx="40" cy="40" r="40" fill="white" fill-opacity="0.1"/>
<path d="M54 55H27C26.4696 55 25.9609 54.7893 25.5858 54.4142C25.2107 54.0391 25 53.5304 25 53V26C25 25.7348 25.1054 25.4804 25.2929 25.2929C25.4804 25.1054 25.7348 25 26 25C26.2652 25 26.5196 25.1054 26.7071 25.2929C26.8946 25.4804 27 25.7348 27 26V53H54C54.2652 53 54.5196 53.1054 54.7071 53.2929C54.8946 53.4804 55 53.7348 55 54C55 54.2652 54.8946 54.5196 54.7071 54.7071C54.5196 54.8946 54.2652 55 54 55Z" fill="#3671E9"/>
<path d="M33.75 51H31.25C30.6533 51 30.081 50.7629 29.659 50.341C29.2371 49.919 29 49.3467 29 48.75V39.25C29 38.6533 29.2371 38.081 29.659 37.659C30.081 37.2371 30.6533 37 31.25 37H33.75C34.3467 37 34.919 37.2371 35.341 37.659C35.7629 38.081 36 38.6533 36 39.25V48.75C36 49.3467 35.7629 49.919 35.341 50.341C34.919 50.7629 34.3467 51 33.75 51Z" fill="#3671E9"/>
<path d="M42.75 51H40.25C39.6533 51 39.081 50.7629 38.659 50.341C38.2371 49.919 38 49.3467 38 48.75V36.25C38 35.6533 38.2371 35.081 38.659 34.659C39.081 34.2371 39.6533 34 40.25 34H42.75C43.3467 34 43.919 34.2371 44.341 34.659C44.7629 35.081 45 35.6533 45 36.25V48.75C45 49.3467 44.7629 49.919 44.341 50.341C43.919 50.7629 43.3467 51 42.75 51Z" fill="#3671E9"/>
<path d="M51.7274 51H49.2274C48.6307 51 48.0584 50.7629 47.6364 50.341C47.2145 49.919 46.9774 49.3467 46.9774 48.75V32.25C46.9774 31.6533 47.2145 31.081 47.6364 30.659C48.0584 30.2371 48.6307 30 49.2274 30H51.7274C52.3242 30 52.8965 30.2371 53.3184 30.659C53.7404 31.081 53.9774 31.6533 53.9774 32.25V48.75C53.9774 49.3467 53.7404 49.919 53.3184 50.341C52.8965 50.7629 52.3242 51 51.7274 51Z" fill="#3671E9"/>
</svg>
